<?xml version="1.0" encoding="UTF-8" standalone="no"?>
<!DOCTYPE svg PUBLIC "-//W3C//DTD SVG 1.1//EN"
 "http://www.w3.org/Graphics/SVG/1.1/DTD/svg11.dtd">
<!-- Generated by graphviz version 2.44.0 (0)
 -->
<!-- Pages: 1 -->
<svg width="238pt" height="278pt"
 viewBox="0.00 0.00 238.00 278.45" xmlns="http://www.w3.org/2000/svg" xmlns:xlink="http://www.w3.org/1999/xlink">
<g id="graph0" class="graph" transform="scale(1 1) rotate(0) translate(4 274.45)">
<polygon fill="white" stroke="transparent" points="-4,4 -4,-274.45 234,-274.45 234,4 -4,4"/>
<!-- &#9679; -->
<g id="node1" class="node">
<title>&#9679;</title>
<ellipse fill="none" stroke="black" cx="115" cy="-240.05" rx="30.31" ry="30.31"/>
<text text-anchor="middle" x="115" y="-232.55" font-family="Times-Roman" font-size="30.00">●</text>
</g>
<!-- MPI_Send/MPI_Recv (1073741824B) -->
<g id="node2" class="node">
<title>MPI_Send/MPI_Recv (1073741824B)</title>
<polygon fill="#9b9bff" stroke="black" points="230,-158.64 0,-158.64 0,-122.64 230,-122.64 230,-158.64"/>
<text text-anchor="middle" x="115" y="-137.54" font-family="Times-Roman" font-size="12.00">MPI_Send/MPI_Recv (1073741824B)</text>
</g>
<!-- &#9679;&#45;&gt;MPI_Send/MPI_Recv (1073741824B) -->
<g id="edge1" class="edge">
<title>&#9679;&#45;&gt;MPI_Send/MPI_Recv (1073741824B)</title>
<path fill="none" stroke="black" d="M115,-209.56C115,-196.74 115,-181.8 115,-169.21"/>
<polygon fill="black" stroke="black" points="118.5,-168.85 115,-158.85 111.5,-168.85 118.5,-168.85"/>
<text text-anchor="middle" x="120" y="-180.44" font-family="Times-Roman" font-size="14.00">1</text>
</g>
<!-- &#9632; -->
<g id="node3" class="node">
<title>&#9632;</title>
<ellipse fill="none" stroke="black" cx="115" cy="-35.82" rx="31.66" ry="31.66"/>
<ellipse fill="none" stroke="black" cx="115" cy="-35.82" rx="35.64" ry="35.64"/>
<text text-anchor="middle" x="115" y="-28.32" font-family="Times-Roman" font-size="30.00">■</text>
</g>
<!-- MPI_Send/MPI_Recv (1073741824B)&#45;&gt;&#9632; -->
<g id="edge2" class="edge">
<title>MPI_Send/MPI_Recv (1073741824B)&#45;&gt;&#9632;</title>
<path fill="none" stroke="black" d="M115,-122.2C115,-111.13 115,-96.27 115,-82.04"/>
<polygon fill="black" stroke="black" points="118.5,-81.86 115,-71.86 111.5,-81.86 118.5,-81.86"/>
<text text-anchor="middle" x="120" y="-93.44" font-family="Times-Roman" font-size="14.00">1</text>
</g>
</g>
</svg>
