<?xml version="1.0" encoding="UTF-8" standalone="no"?>
<!DOCTYPE svg PUBLIC "-//W3C//DTD SVG 1.1//EN"
 "http://www.w3.org/Graphics/SVG/1.1/DTD/svg11.dtd">
<!-- Generated by graphviz version 2.44.0 (0)
 -->
<!-- Pages: 1 -->
<svg width="502pt" height="626pt"
 viewBox="0.00 0.00 502.00 626.45" xmlns="http://www.w3.org/2000/svg" xmlns:xlink="http://www.w3.org/1999/xlink">
<g id="graph0" class="graph" transform="scale(1 1) rotate(0) translate(4 622.45)">
<polygon fill="white" stroke="transparent" points="-4,4 -4,-622.45 498,-622.45 498,4 -4,4"/>
<!-- &#9679; -->
<g id="node1" class="node">
<title>&#9679;</title>
<ellipse fill="none" stroke="black" cx="151" cy="-588.05" rx="30.31" ry="30.31"/>
<text text-anchor="middle" x="151" y="-580.55" font-family="Times-Roman" font-size="30.00">â—</text>
</g>
<!-- read+/usr/lib64 -->
<g id="node6" class="node">
<title>read+/usr/lib64</title>
<polygon fill="#ebebff" stroke="black" points="205,-506.64 97,-506.64 97,-470.64 205,-470.64 205,-506.64"/>
<text text-anchor="middle" x="151" y="-485.54" font-family="Times-Roman" font-size="12.00">read+/usr/lib64</text>
</g>
<!-- &#9679;&#45;&gt;read+/usr/lib64 -->
<g id="edge1" class="edge">
<title>&#9679;&#45;&gt;read+/usr/lib64</title>
<path fill="none" stroke="#000000" d="M151,-557.56C151,-544.74 151,-529.8 151,-517.21"/>
<polygon fill="#000000" stroke="#000000" points="154.5,-516.85 151,-506.85 147.5,-516.85 154.5,-516.85"/>
<text text-anchor="middle" x="156" y="-528.44" font-family="Times-Roman" font-size="14.00">6</text>
</g>
<!-- read+/etc/authselect -->
<g id="node2" class="node">
<title>read+/etc/authselect</title>
<polygon fill="#f7f7ff" stroke="black" points="306,-140.82 164,-140.82 164,-104.82 306,-104.82 306,-140.82"/>
<text text-anchor="middle" x="235" y="-119.72" font-family="Times-Roman" font-size="12.00">read+/etc/authselect</text>
</g>
<!-- read+/etc/authselect&#45;&gt;read+/etc/authselect -->
<g id="edge9" class="edge">
<title>read+/etc/authselect&#45;&gt;read+/etc/authselect</title>
<path fill="none" stroke="#000000" d="M306.23,-133.03C316.83,-131.44 324,-128.03 324,-122.82 324,-119.48 321.06,-116.88 316.15,-115.03"/>
<polygon fill="#000000" stroke="#000000" points="316.77,-111.58 306.23,-112.61 315.11,-118.38 316.77,-111.58"/>
<text text-anchor="middle" x="329" y="-119.12" font-family="Times-Roman" font-size="14.00">6</text>
</g>
<!-- read+/etc/passwd -->
<g id="node4" class="node">
<title>read+/etc/passwd</title>
<polygon fill="#f3f3ff" stroke="black" points="124,-36 0,-36 0,0 124,0 124,-36"/>
<text text-anchor="middle" x="62" y="-14.9" font-family="Times-Roman" font-size="12.00">read+/etc/passwd</text>
</g>
<!-- read+/etc/authselect&#45;&gt;read+/etc/passwd -->
<g id="edge10" class="edge">
<title>read+/etc/authselect&#45;&gt;read+/etc/passwd</title>
<path fill="none" stroke="#000000" d="M206.04,-104.61C176.77,-87.21 131.39,-60.24 99.4,-41.23"/>
<polygon fill="#000000" stroke="#000000" points="101.15,-38.19 90.76,-36.09 97.57,-44.21 101.15,-38.19"/>
<text text-anchor="middle" x="149" y="-57.8" font-family="Times-Roman" font-size="14.00">6</text>
</g>
<!-- read+/etc/group -->
<g id="node3" class="node">
<title>read+/etc/group</title>
<polygon fill="#f7f7ff" stroke="black" points="466,-140.82 352,-140.82 352,-104.82 466,-104.82 466,-140.82"/>
<text text-anchor="middle" x="409" y="-119.72" font-family="Times-Roman" font-size="12.00">read+/etc/group</text>
</g>
<!-- read+/etc/group&#45;&gt;read+/etc/group -->
<g id="edge15" class="edge">
<title>read+/etc/group&#45;&gt;read+/etc/group</title>
<path fill="none" stroke="#000000" d="M466.23,-133.45C476.67,-132.11 484,-128.56 484,-122.82 484,-119.14 480.99,-116.36 476.08,-114.49"/>
<polygon fill="#000000" stroke="#000000" points="476.76,-111.05 466.23,-112.19 475.17,-117.87 476.76,-111.05"/>
<text text-anchor="middle" x="489" y="-119.12" font-family="Times-Roman" font-size="14.00">6</text>
</g>
<!-- read+socket -->
<g id="node8" class="node">
<title>read+socket</title>
<polygon fill="#e7e7ff" stroke="black" points="315,-245.64 223,-245.64 223,-209.64 315,-209.64 315,-245.64"/>
<text text-anchor="middle" x="269" y="-224.54" font-family="Times-Roman" font-size="12.00">read+socket</text>
</g>
<!-- read+/etc/group&#45;&gt;read+socket -->
<g id="edge16" class="edge">
<title>read+/etc/group&#45;&gt;read+socket</title>
<path fill="none" stroke="#000000" d="M396.85,-141.01C385.57,-155.96 367.61,-177.41 348,-191.64 340.77,-196.89 332.62,-201.59 324.38,-205.71"/>
<polygon fill="#000000" stroke="#000000" points="322.61,-202.68 315.08,-210.12 325.61,-209 322.61,-202.68"/>
<text text-anchor="middle" x="370" y="-180.44" font-family="Times-Roman" font-size="14.00">6</text>
</g>
<!-- read+/etc/passwd&#45;&gt;read+/etc/passwd -->
<g id="edge11" class="edge">
<title>read+/etc/passwd&#45;&gt;read+/etc/passwd</title>
<path fill="none" stroke="#000000" d="M124.05,-25.35C134.66,-24.35 142,-21.9 142,-18 142,-15.5 138.99,-13.6 134.03,-12.29"/>
<polygon fill="#000000" stroke="#000000" points="134.49,-8.82 124.05,-10.65 133.35,-15.73 134.49,-8.82"/>
<text text-anchor="middle" x="151.5" y="-14.3" font-family="Times-Roman" font-size="14.00">12</text>
</g>
<!-- read+/etc/passwd&#45;&gt;read+/usr/lib64 -->
<g id="edge12" class="edge">
<title>read+/etc/passwd&#45;&gt;read+/usr/lib64</title>
<path fill="none" stroke="#000000" d="M57.63,-36.34C52.89,-56.67 46,-91.47 46,-121.82 46,-402.64 46,-402.64 46,-402.64 46,-431.49 70.24,-452.24 95.42,-466.01"/>
<polygon fill="#000000" stroke="#000000" points="93.84,-469.13 104.33,-470.59 97.04,-462.91 93.84,-469.13"/>
<text text-anchor="middle" x="51" y="-267.44" font-family="Times-Roman" font-size="14.00">6</text>
</g>
<!-- read+/proc/filesystems -->
<g id="node5" class="node">
<title>read+/proc/filesystems</title>
<polygon fill="#f7f7ff" stroke="black" points="228,-419.64 74,-419.64 74,-383.64 228,-383.64 228,-419.64"/>
<text text-anchor="middle" x="151" y="-398.54" font-family="Times-Roman" font-size="12.00">read+/proc/filesystems</text>
</g>
<!-- read+/proc/filesystems&#45;&gt;read+/proc/filesystems -->
<g id="edge4" class="edge">
<title>read+/proc/filesystems&#45;&gt;read+/proc/filesystems</title>
<path fill="none" stroke="#000000" d="M228.16,-408.67C238.85,-407.51 246,-405.17 246,-401.64 246,-399.38 243.07,-397.61 238.15,-396.32"/>
<polygon fill="#000000" stroke="#000000" points="238.61,-392.85 228.16,-394.61 237.43,-399.75 238.61,-392.85"/>
<text text-anchor="middle" x="251" y="-397.94" font-family="Times-Roman" font-size="14.00">6</text>
</g>
<!-- read+/usr/share -->
<g id="node7" class="node">
<title>read+/usr/share</title>
<polygon fill="#efefff" stroke="black" points="213.5,-332.64 100.5,-332.64 100.5,-296.64 213.5,-296.64 213.5,-332.64"/>
<text text-anchor="middle" x="157" y="-311.54" font-family="Times-Roman" font-size="12.00">read+/usr/share</text>
</g>
<!-- read+/proc/filesystems&#45;&gt;read+/usr/share -->
<g id="edge5" class="edge">
<title>read+/proc/filesystems&#45;&gt;read+/usr/share</title>
<path fill="none" stroke="#000000" d="M152.21,-383.44C153.04,-371.8 154.14,-356.19 155.08,-342.88"/>
<polygon fill="#000000" stroke="#000000" points="158.57,-343.04 155.79,-332.82 151.59,-342.54 158.57,-343.04"/>
<text text-anchor="middle" x="159" y="-354.44" font-family="Times-Roman" font-size="14.00">6</text>
</g>
<!-- read+/usr/lib64&#45;&gt;read+/proc/filesystems -->
<g id="edge3" class="edge">
<title>read+/usr/lib64&#45;&gt;read+/proc/filesystems</title>
<path fill="none" stroke="#000000" d="M151,-470.44C151,-458.8 151,-443.19 151,-429.88"/>
<polygon fill="#000000" stroke="#000000" points="154.5,-429.82 151,-419.82 147.5,-429.82 154.5,-429.82"/>
<text text-anchor="middle" x="156" y="-441.44" font-family="Times-Roman" font-size="14.00">6</text>
</g>
<!-- read+/usr/lib64&#45;&gt;read+/usr/lib64 -->
<g id="edge2" class="edge">
<title>read+/usr/lib64&#45;&gt;read+/usr/lib64</title>
<path fill="none" stroke="#000000" d="M205.01,-496.16C215.53,-495.29 223,-492.78 223,-488.64 223,-485.99 219.93,-484 214.96,-482.69"/>
<polygon fill="#000000" stroke="#000000" points="215.43,-479.22 205.01,-481.12 214.34,-486.13 215.43,-479.22"/>
<text text-anchor="middle" x="232.5" y="-484.94" font-family="Times-Roman" font-size="14.00">18</text>
</g>
<!-- read+/usr/lib64&#45;&gt;read+socket -->
<g id="edge13" class="edge">
<title>read+/usr/lib64&#45;&gt;read+socket</title>
<path fill="none" stroke="#000000" d="M201.86,-470.56C225.39,-459.84 251.15,-443.44 265,-419.64 294.96,-368.15 284.85,-294.89 276.15,-255.75"/>
<polygon fill="#000000" stroke="#000000" points="279.47,-254.6 273.76,-245.67 272.66,-256.2 279.47,-254.6"/>
<text text-anchor="middle" x="289" y="-354.44" font-family="Times-Roman" font-size="14.00">6</text>
</g>
<!-- read+/usr/share&#45;&gt;read+/usr/share -->
<g id="edge6" class="edge">
<title>read+/usr/share&#45;&gt;read+/usr/share</title>
<path fill="none" stroke="#000000" d="M213.53,-322.11C224.07,-321.19 231.5,-318.7 231.5,-314.64 231.5,-312.04 228.45,-310.08 223.49,-308.77"/>
<polygon fill="#000000" stroke="#000000" points="223.95,-305.3 213.53,-307.17 222.84,-312.21 223.95,-305.3"/>
<text text-anchor="middle" x="241" y="-310.94" font-family="Times-Roman" font-size="14.00">12</text>
</g>
<!-- read+/usr/share&#45;&gt;read+socket -->
<g id="edge7" class="edge">
<title>read+/usr/share&#45;&gt;read+socket</title>
<path fill="none" stroke="#000000" d="M166.2,-296.61C172.59,-286.03 181.94,-272.75 193,-263.64 199.23,-258.51 206.33,-253.96 213.64,-249.97"/>
<polygon fill="#000000" stroke="#000000" points="215.62,-252.89 222.95,-245.23 212.45,-246.65 215.62,-252.89"/>
<text text-anchor="middle" x="198" y="-267.44" font-family="Times-Roman" font-size="14.00">6</text>
</g>
<!-- write+pipe -->
<g id="node9" class="node">
<title>write+pipe</title>
<polygon fill="#fbfbff" stroke="black" points="167,-245.64 85,-245.64 85,-209.64 167,-209.64 167,-245.64"/>
<text text-anchor="middle" x="126" y="-224.54" font-family="Times-Roman" font-size="12.00">write+pipe</text>
</g>
<!-- read+/usr/share&#45;&gt;write+pipe -->
<g id="edge19" class="edge">
<title>read+/usr/share&#45;&gt;write+pipe</title>
<path fill="none" stroke="#000000" d="M149.19,-296.32C146.77,-290.73 144.17,-284.46 142,-278.64 139.24,-271.24 136.51,-263.13 134.12,-255.63"/>
<polygon fill="#000000" stroke="#000000" points="137.4,-254.4 131.08,-245.9 130.72,-256.49 137.4,-254.4"/>
<text text-anchor="middle" x="147" y="-267.44" font-family="Times-Roman" font-size="14.00">6</text>
</g>
<!-- read+socket&#45;&gt;read+/etc/authselect -->
<g id="edge8" class="edge">
<title>read+socket&#45;&gt;read+/etc/authselect</title>
<path fill="none" stroke="#000000" d="M263.23,-209.2C257.93,-193.15 249.97,-169.1 243.86,-150.62"/>
<polygon fill="#000000" stroke="#000000" points="247.15,-149.4 240.68,-141 240.5,-151.6 247.15,-149.4"/>
<text text-anchor="middle" x="262" y="-180.44" font-family="Times-Roman" font-size="14.00">6</text>
</g>
<!-- read+socket&#45;&gt;read+/etc/group -->
<g id="edge14" class="edge">
<title>read+socket&#45;&gt;read+/etc/group</title>
<path fill="none" stroke="#000000" d="M292.43,-209.43C315.65,-192.38 351.38,-166.14 377.16,-147.2"/>
<polygon fill="#000000" stroke="#000000" points="379.5,-149.83 385.49,-141.09 375.36,-144.18 379.5,-149.83"/>
<text text-anchor="middle" x="339" y="-180.44" font-family="Times-Roman" font-size="14.00">6</text>
</g>
<!-- read+socket&#45;&gt;read+/usr/share -->
<g id="edge18" class="edge">
<title>read+socket&#45;&gt;read+/usr/share</title>
<path fill="none" stroke="#000000" d="M246.37,-245.82C229.53,-258.6 206.35,-276.19 187.81,-290.25"/>
<polygon fill="#000000" stroke="#000000" points="185.51,-287.61 179.66,-296.44 189.75,-293.18 185.51,-287.61"/>
<text text-anchor="middle" x="224" y="-267.44" font-family="Times-Roman" font-size="14.00">6</text>
</g>
<!-- read+socket&#45;&gt;read+socket -->
<g id="edge17" class="edge">
<title>read+socket&#45;&gt;read+socket</title>
<path fill="none" stroke="#000000" d="M315.02,-235.32C325.41,-234.63 333,-232.07 333,-227.64 333,-224.87 330.03,-222.83 325.27,-221.52"/>
<polygon fill="#000000" stroke="#000000" points="325.44,-218.01 315.02,-219.96 324.38,-224.93 325.44,-218.01"/>
<text text-anchor="middle" x="342.5" y="-223.94" font-family="Times-Roman" font-size="14.00">18</text>
</g>
<!-- &#9632; -->
<g id="node10" class="node">
<title>&#9632;</title>
<ellipse fill="none" stroke="black" cx="110" cy="-122.82" rx="31.66" ry="31.66"/>
<ellipse fill="none" stroke="black" cx="110" cy="-122.82" rx="35.64" ry="35.64"/>
<text text-anchor="middle" x="110" y="-115.32" font-family="Times-Roman" font-size="30.00">â– </text>
</g>
<!-- write+pipe&#45;&gt;&#9632; -->
<g id="edge20" class="edge">
<title>write+pipe&#45;&gt;&#9632;</title>
<path fill="none" stroke="#000000" d="M123.29,-209.2C121.55,-198.04 119.21,-183.02 116.98,-168.69"/>
<polygon fill="#000000" stroke="#000000" points="120.38,-167.78 115.39,-158.44 113.47,-168.86 120.38,-167.78"/>
<text text-anchor="middle" x="126" y="-180.44" font-family="Times-Roman" font-size="14.00">6</text>
</g>
</g>
</svg>
