<?xml version="1.0" encoding="UTF-8" standalone="no"?>
<!DOCTYPE svg PUBLIC "-//W3C//DTD SVG 1.1//EN"
 "http://www.w3.org/Graphics/SVG/1.1/DTD/svg11.dtd">
<!-- Generated by graphviz version 2.44.0 (0)
 -->
<!-- Pages: 1 -->
<svg width="1080pt" height="713pt"
 viewBox="0.00 0.00 1079.84 713.45" xmlns="http://www.w3.org/2000/svg" xmlns:xlink="http://www.w3.org/1999/xlink">
<g id="graph0" class="graph" transform="scale(1 1) rotate(0) translate(4 709.45)">
<polygon fill="white" stroke="transparent" points="-4,4 -4,-709.45 1075.84,-709.45 1075.84,4 -4,4"/>
<!-- &#9679; -->
<g id="node1" class="node">
<title>&#9679;</title>
<ellipse fill="none" stroke="black" cx="486.84" cy="-675.05" rx="30.31" ry="30.31"/>
<text text-anchor="middle" x="486.84" y="-667.55" font-family="Times-Roman" font-size="30.00">●</text>
</g>
<!-- MPI_Send/MPI_Irecv (128B) -->
<g id="node2" class="node">
<title>MPI_Send/MPI_Irecv (128B)</title>
<polygon fill="#e3e3ff" stroke="black" points="576.34,-593.64 397.34,-593.64 397.34,-557.64 576.34,-557.64 576.34,-593.64"/>
<text text-anchor="middle" x="486.84" y="-572.54" font-family="Times-Roman" font-size="12.00">MPI_Send/MPI_Irecv (128B)</text>
</g>
<!-- &#9679;&#45;&gt;MPI_Send/MPI_Irecv (128B) -->
<g id="edge2" class="edge">
<title>&#9679;&#45;&gt;MPI_Send/MPI_Irecv (128B)</title>
<path fill="none" stroke="black" d="M486.84,-644.56C486.84,-631.74 486.84,-616.8 486.84,-604.21"/>
<polygon fill="black" stroke="black" points="490.34,-603.85 486.84,-593.85 483.34,-603.85 490.34,-603.85"/>
<text text-anchor="middle" x="491.84" y="-615.44" font-family="Times-Roman" font-size="14.00">7</text>
</g>
<!-- MPI_Send/MPI_Irecv (2048B) -->
<g id="node4" class="node">
<title>MPI_Send/MPI_Irecv (2048B)</title>
<polygon fill="#f0f0ff" stroke="black" points="544.84,-245.64 358.84,-245.64 358.84,-209.64 544.84,-209.64 544.84,-245.64"/>
<text text-anchor="middle" x="451.84" y="-224.54" font-family="Times-Roman" font-size="12.00">MPI_Send/MPI_Irecv (2048B)</text>
</g>
<!-- &#9679;&#45;&gt;MPI_Send/MPI_Irecv (2048B) -->
<g id="edge1" class="edge">
<title>&#9679;&#45;&gt;MPI_Send/MPI_Irecv (2048B)</title>
<path fill="none" stroke="black" d="M456.63,-669.97C362.61,-656.59 78.24,-610.79 24.84,-539.64 20.83,-534.31 22.57,-530.91 24.84,-524.64 56.02,-438.25 109.68,-444.45 156.84,-365.64 173.83,-337.24 159.9,-318.4 184.84,-296.64 198.37,-284.83 287.92,-263.48 359.63,-247.84"/>
<polygon fill="black" stroke="black" points="360.59,-251.21 369.63,-245.67 359.11,-244.37 360.59,-251.21"/>
<text text-anchor="middle" x="95.84" y="-441.44" font-family="Times-Roman" font-size="14.00">6</text>
</g>
<!-- MPI_Send/MPI_Irecv (8B) -->
<g id="node8" class="node">
<title>MPI_Send/MPI_Irecv (8B)</title>
<polygon fill="#eeeeff" stroke="black" points="760.84,-419.64 596.84,-419.64 596.84,-383.64 760.84,-383.64 760.84,-419.64"/>
<text text-anchor="middle" x="678.84" y="-398.54" font-family="Times-Roman" font-size="12.00">MPI_Send/MPI_Irecv (8B)</text>
</g>
<!-- &#9679;&#45;&gt;MPI_Send/MPI_Irecv (8B) -->
<g id="edge3" class="edge">
<title>&#9679;&#45;&gt;MPI_Send/MPI_Irecv (8B)</title>
<path fill="none" stroke="black" d="M517.18,-671.47C623.12,-661.8 973.66,-623.82 1039.84,-539.64 1115.19,-443.78 901.23,-414.98 771.03,-406.34"/>
<polygon fill="black" stroke="black" points="771.24,-402.84 761.03,-405.7 770.79,-409.83 771.24,-402.84"/>
<text text-anchor="middle" x="1053.84" y="-528.44" font-family="Times-Roman" font-size="14.00">3</text>
</g>
<!-- MPI_Send/MPI_Irecv (128B)&#45;&gt;MPI_Send/MPI_Irecv (128B) -->
<g id="edge7" class="edge">
<title>MPI_Send/MPI_Irecv (128B)&#45;&gt;MPI_Send/MPI_Irecv (128B)</title>
<path fill="none" stroke="#000000" d="M576.62,-582.41C587.34,-581.18 594.34,-578.92 594.34,-575.64 594.34,-573.54 591.46,-571.86 586.58,-570.6"/>
<polygon fill="#000000" stroke="#000000" points="587.07,-567.13 576.62,-568.87 585.88,-574.03 587.07,-567.13"/>
<text text-anchor="middle" x="617.34" y="-571.94" font-family="Times-Roman" font-size="14.00">12937</text>
</g>
<!-- MPI_Send/MPI_Irecv (16B) -->
<g id="node3" class="node">
<title>MPI_Send/MPI_Irecv (16B)</title>
<polygon fill="#fbfbff" stroke="black" points="850.34,-506.64 679.34,-506.64 679.34,-470.64 850.34,-470.64 850.34,-506.64"/>
<text text-anchor="middle" x="764.84" y="-485.54" font-family="Times-Roman" font-size="12.00">MPI_Send/MPI_Irecv (16B)</text>
</g>
<!-- MPI_Send/MPI_Irecv (128B)&#45;&gt;MPI_Send/MPI_Irecv (16B) -->
<g id="edge36" class="edge">
<title>MPI_Send/MPI_Irecv (128B)&#45;&gt;MPI_Send/MPI_Irecv (16B)</title>
<path fill="none" stroke="#000000" d="M562.8,-557.56C584.28,-552.29 607.59,-546.14 628.84,-539.64 656.89,-531.06 687.6,-519.92 712.73,-510.33"/>
<polygon fill="#000000" stroke="#000000" points="713.99,-513.6 722.07,-506.75 711.48,-507.06 713.99,-513.6"/>
<text text-anchor="middle" x="683.84" y="-528.44" font-family="Times-Roman" font-size="14.00">471</text>
</g>
<!-- MPI_Send/MPI_Irecv (128B)&#45;&gt;MPI_Send/MPI_Irecv (2048B) -->
<g id="edge6" class="edge">
<title>MPI_Send/MPI_Irecv (128B)&#45;&gt;MPI_Send/MPI_Irecv (2048B)</title>
<path fill="none" stroke="#000000" d="M476.36,-557.31C460.21,-529.48 429.93,-472.56 418.84,-419.64 415.55,-403.98 413.15,-398.6 418.84,-383.64 422.64,-373.63 430.42,-375.39 434.84,-365.64 450.87,-330.21 453.41,-284.65 453.12,-256.04"/>
<polygon fill="#000000" stroke="#000000" points="456.62,-255.88 452.89,-245.96 449.62,-256.04 456.62,-255.88"/>
<text text-anchor="middle" x="441.84" y="-397.94" font-family="Times-Roman" font-size="14.00">23244</text>
</g>
<!-- MPI_Send/MPI_Irecv (32B) -->
<g id="node5" class="node">
<title>MPI_Send/MPI_Irecv (32B)</title>
<polygon fill="#efefff" stroke="black" points="765.34,-36 594.34,-36 594.34,0 765.34,0 765.34,-36"/>
<text text-anchor="middle" x="679.84" y="-14.9" font-family="Times-Roman" font-size="12.00">MPI_Send/MPI_Irecv (32B)</text>
</g>
<!-- MPI_Send/MPI_Irecv (128B)&#45;&gt;MPI_Send/MPI_Irecv (32B) -->
<g id="edge17" class="edge">
<title>MPI_Send/MPI_Irecv (128B)&#45;&gt;MPI_Send/MPI_Irecv (32B)</title>
<path fill="none" stroke="#000000" d="M576.45,-569.54C729.71,-559.6 1025.84,-534.58 1025.84,-489.64 1025.84,-489.64 1025.84,-489.64 1025.84,-121.82 1025.84,-80.38 998.81,-72.73 961.84,-54 930.01,-37.88 844.13,-28.8 775.43,-23.95"/>
<polygon fill="#000000" stroke="#000000" points="775.65,-20.46 765.43,-23.27 775.17,-27.44 775.65,-20.46"/>
<text text-anchor="middle" x="1048.84" y="-310.94" font-family="Times-Roman" font-size="14.00">15979</text>
</g>
<!-- MPI_Send/MPI_Irecv (512B) -->
<g id="node6" class="node">
<title>MPI_Send/MPI_Irecv (512B)</title>
<polygon fill="#f4f4ff" stroke="black" points="541.34,-140.82 362.34,-140.82 362.34,-104.82 541.34,-104.82 541.34,-140.82"/>
<text text-anchor="middle" x="451.84" y="-119.72" font-family="Times-Roman" font-size="12.00">MPI_Send/MPI_Irecv (512B)</text>
</g>
<!-- MPI_Send/MPI_Irecv (128B)&#45;&gt;MPI_Send/MPI_Irecv (512B) -->
<g id="edge39" class="edge">
<title>MPI_Send/MPI_Irecv (128B)&#45;&gt;MPI_Send/MPI_Irecv (512B)</title>
<path fill="none" stroke="#000000" d="M396.95,-572.16C313.44,-568.62 195.98,-560.07 154.84,-539.64 79.09,-502.03 91.12,-449.16 77.84,-365.64 60.95,-259.46 130.99,-221.21 228.84,-176.64 267.47,-159.04 312.64,-146.94 352.19,-138.8"/>
<polygon fill="#000000" stroke="#000000" points="352.99,-142.21 362.12,-136.82 351.62,-135.35 352.99,-142.21"/>
<text text-anchor="middle" x="91.84" y="-354.44" font-family="Times-Roman" font-size="14.00">471</text>
</g>
<!-- MPI_Send/MPI_Irecv (64B) -->
<g id="node7" class="node">
<title>MPI_Send/MPI_Irecv (64B)</title>
<polygon fill="#f3f3ff" stroke="black" points="365.34,-332.64 194.34,-332.64 194.34,-296.64 365.34,-296.64 365.34,-332.64"/>
<text text-anchor="middle" x="279.84" y="-311.54" font-family="Times-Roman" font-size="12.00">MPI_Send/MPI_Irecv (64B)</text>
</g>
<!-- MPI_Send/MPI_Irecv (128B)&#45;&gt;MPI_Send/MPI_Irecv (64B) -->
<g id="edge29" class="edge">
<title>MPI_Send/MPI_Irecv (128B)&#45;&gt;MPI_Send/MPI_Irecv (64B)</title>
<path fill="none" stroke="#000000" d="M419.12,-557.44C408.89,-552.81 399.03,-546.98 390.84,-539.64 329.94,-485.12 298.57,-389.59 286.24,-342.89"/>
<polygon fill="#000000" stroke="#000000" points="289.56,-341.74 283.7,-332.91 282.77,-343.47 289.56,-341.74"/>
<text text-anchor="middle" x="345.34" y="-441.44" font-family="Times-Roman" font-size="14.00">1100</text>
</g>
<!-- MPI_Send/MPI_Irecv (128B)&#45;&gt;MPI_Send/MPI_Irecv (8B) -->
<g id="edge8" class="edge">
<title>MPI_Send/MPI_Irecv (128B)&#45;&gt;MPI_Send/MPI_Irecv (8B)</title>
<path fill="none" stroke="#000000" d="M493.57,-557.46C502.9,-535.32 521.52,-496.61 546.84,-470.64 566.78,-450.18 594.2,-434.69 618.88,-423.7"/>
<polygon fill="#000000" stroke="#000000" points="620.38,-426.87 628.19,-419.71 617.62,-420.44 620.38,-426.87"/>
<text text-anchor="middle" x="569.84" y="-484.94" font-family="Times-Roman" font-size="14.00">14280</text>
</g>
<!-- &#9632; -->
<g id="node9" class="node">
<title>&#9632;</title>
<ellipse fill="none" stroke="black" cx="849.84" cy="-122.82" rx="31.66" ry="31.66"/>
<ellipse fill="none" stroke="black" cx="849.84" cy="-122.82" rx="35.64" ry="35.64"/>
<text text-anchor="middle" x="849.84" y="-115.32" font-family="Times-Roman" font-size="30.00">■</text>
</g>
<!-- MPI_Send/MPI_Irecv (128B)&#45;&gt;&#9632; -->
<g id="edge44" class="edge">
<title>MPI_Send/MPI_Irecv (128B)&#45;&gt;&#9632;</title>
<path fill="none" stroke="black" d="M576.35,-572.07C687.3,-566.96 867.56,-551.77 914.84,-506.64 937.47,-485.03 932.48,-468.72 928.84,-437.64 914.96,-319.22 898.9,-291.47 866.84,-176.64 865.91,-173.34 864.92,-169.93 863.89,-166.52"/>
<polygon fill="black" stroke="black" points="867.23,-165.47 860.94,-156.95 860.54,-167.54 867.23,-165.47"/>
<text text-anchor="middle" x="922.84" y="-354.44" font-family="Times-Roman" font-size="14.00">7</text>
</g>
<!-- MPI_Send/MPI_Irecv (16B)&#45;&gt;MPI_Send/MPI_Irecv (128B) -->
<g id="edge40" class="edge">
<title>MPI_Send/MPI_Irecv (16B)&#45;&gt;MPI_Send/MPI_Irecv (128B)</title>
<path fill="none" stroke="#000000" d="M748.25,-506.75C736.39,-517.93 719.46,-531.85 701.84,-539.64 666.11,-555.43 624.21,-564.17 586.94,-568.99"/>
<polygon fill="#000000" stroke="#000000" points="586.06,-565.57 576.56,-570.25 586.91,-572.52 586.06,-565.57"/>
<text text-anchor="middle" x="739.84" y="-528.44" font-family="Times-Roman" font-size="14.00">471</text>
</g>
<!-- MPI_Send/MPI_Irecv (16B)&#45;&gt;MPI_Send/MPI_Irecv (16B) -->
<g id="edge24" class="edge">
<title>MPI_Send/MPI_Irecv (16B)&#45;&gt;MPI_Send/MPI_Irecv (16B)</title>
<path fill="none" stroke="#000000" d="M850.5,-495.5C861.26,-494.29 868.34,-492 868.34,-488.64 868.34,-486.49 865.43,-484.77 860.51,-483.5"/>
<polygon fill="#000000" stroke="#000000" points="860.95,-480.03 850.5,-481.78 859.76,-486.92 860.95,-480.03"/>
<text text-anchor="middle" x="886.84" y="-484.94" font-family="Times-Roman" font-size="14.00">1256</text>
</g>
<!-- MPI_Send/MPI_Irecv (16B)&#45;&gt;MPI_Send/MPI_Irecv (32B) -->
<g id="edge23" class="edge">
<title>MPI_Send/MPI_Irecv (16B)&#45;&gt;MPI_Send/MPI_Irecv (32B)</title>
<path fill="none" stroke="#000000" d="M780.56,-470.41C832.99,-410.87 993.07,-210.69 894.84,-87 866.26,-51.02 818.7,-33.74 775.57,-25.57"/>
<polygon fill="#000000" stroke="#000000" points="776.03,-22.1 765.58,-23.83 774.83,-29 776.03,-22.1"/>
<text text-anchor="middle" x="928.34" y="-267.44" font-family="Times-Roman" font-size="14.00">5810</text>
</g>
<!-- MPI_Send/MPI_Irecv (16B)&#45;&gt;MPI_Send/MPI_Irecv (8B) -->
<g id="edge25" class="edge">
<title>MPI_Send/MPI_Irecv (16B)&#45;&gt;MPI_Send/MPI_Irecv (8B)</title>
<path fill="none" stroke="#000000" d="M752.41,-470.63C744.7,-460.56 734.29,-447.82 723.84,-437.64 719.85,-433.75 715.44,-429.89 710.99,-426.22"/>
<polygon fill="#000000" stroke="#000000" points="713.02,-423.35 703.01,-419.86 708.66,-428.83 713.02,-423.35"/>
<text text-anchor="middle" x="755.34" y="-441.44" font-family="Times-Roman" font-size="14.00">2511</text>
</g>
<!-- MPI_Send/MPI_Irecv (2048B)&#45;&gt;MPI_Send/MPI_Irecv (128B) -->
<g id="edge5" class="edge">
<title>MPI_Send/MPI_Irecv (2048B)&#45;&gt;MPI_Send/MPI_Irecv (128B)</title>
<path fill="none" stroke="#000000" d="M463.49,-245.7C473.67,-262.29 486.84,-288.58 486.84,-313.64 486.84,-489.64 486.84,-489.64 486.84,-489.64 486.84,-508.89 486.84,-530.59 486.84,-547.24"/>
<polygon fill="#000000" stroke="#000000" points="483.34,-547.38 486.84,-557.38 490.34,-547.38 483.34,-547.38"/>
<text text-anchor="middle" x="509.84" y="-397.94" font-family="Times-Roman" font-size="14.00">23236</text>
</g>
<!-- MPI_Send/MPI_Irecv (2048B)&#45;&gt;MPI_Send/MPI_Irecv (2048B) -->
<g id="edge4" class="edge">
<title>MPI_Send/MPI_Irecv (2048B)&#45;&gt;MPI_Send/MPI_Irecv (2048B)</title>
<path fill="none" stroke="#000000" d="M544.96,-234.36C555.79,-233.12 562.84,-230.88 562.84,-227.64 562.84,-225.56 559.94,-223.9 555.02,-222.64"/>
<polygon fill="#000000" stroke="#000000" points="555.4,-219.16 544.96,-220.92 554.22,-226.06 555.4,-219.16"/>
<text text-anchor="middle" x="581.34" y="-223.94" font-family="Times-Roman" font-size="14.00">7905</text>
</g>
<!-- MPI_Send/MPI_Irecv (2048B)&#45;&gt;MPI_Send/MPI_Irecv (512B) -->
<g id="edge38" class="edge">
<title>MPI_Send/MPI_Irecv (2048B)&#45;&gt;MPI_Send/MPI_Irecv (512B)</title>
<path fill="none" stroke="#000000" d="M451.84,-209.2C451.84,-193.3 451.84,-169.55 451.84,-151.13"/>
<polygon fill="#000000" stroke="#000000" points="455.34,-151 451.84,-141 448.34,-151 455.34,-151"/>
<text text-anchor="middle" x="456.84" y="-180.44" font-family="Times-Roman" font-size="14.00">4</text>
</g>
<!-- MPI_Send/MPI_Irecv (2048B)&#45;&gt;MPI_Send/MPI_Irecv (64B) -->
<g id="edge33" class="edge">
<title>MPI_Send/MPI_Irecv (2048B)&#45;&gt;MPI_Send/MPI_Irecv (64B)</title>
<path fill="none" stroke="#000000" d="M427.69,-245.74C412.42,-256.09 392.01,-269.09 372.84,-278.64 362.56,-283.76 351.35,-288.58 340.38,-292.91"/>
<polygon fill="#000000" stroke="#000000" points="338.91,-289.73 330.83,-296.59 341.42,-296.26 338.91,-289.73"/>
<text text-anchor="middle" x="413.84" y="-267.44" font-family="Times-Roman" font-size="14.00">469</text>
</g>
<!-- MPI_Send/MPI_Irecv (2048B)&#45;&gt;MPI_Send/MPI_Irecv (8B) -->
<g id="edge28" class="edge">
<title>MPI_Send/MPI_Irecv (2048B)&#45;&gt;MPI_Send/MPI_Irecv (8B)</title>
<path fill="none" stroke="#000000" d="M485.57,-245.64C496.81,-251.33 509.37,-257.73 520.84,-263.64 548.93,-278.12 558.8,-277.35 583.84,-296.64 592.11,-303.02 631.69,-347.24 657.08,-375.93"/>
<polygon fill="#000000" stroke="#000000" points="654.58,-378.39 663.83,-383.57 659.83,-373.76 654.58,-378.39"/>
<text text-anchor="middle" x="636.34" y="-310.94" font-family="Times-Roman" font-size="14.00">5266</text>
</g>
<!-- MPI_Send/MPI_Irecv (2048B)&#45;&gt;&#9632; -->
<g id="edge45" class="edge">
<title>MPI_Send/MPI_Irecv (2048B)&#45;&gt;&#9632;</title>
<path fill="none" stroke="black" d="M518,-209.55C599.43,-188.51 735.47,-153.37 805.38,-135.31"/>
<polygon fill="black" stroke="black" points="806.39,-138.66 815.2,-132.77 804.64,-131.88 806.39,-138.66"/>
<text text-anchor="middle" x="643.84" y="-180.44" font-family="Times-Roman" font-size="14.00">6</text>
</g>
<!-- MPI_Send/MPI_Irecv (32B)&#45;&gt;MPI_Send/MPI_Irecv (128B) -->
<g id="edge18" class="edge">
<title>MPI_Send/MPI_Irecv (32B)&#45;&gt;MPI_Send/MPI_Irecv (128B)</title>
<path fill="none" stroke="#000000" d="M594.03,-19.95C436.7,-22.28 113.96,-29.94 68.84,-54 52.6,-62.66 50.44,-69.83 43.84,-87 -23.48,-262.13 -15.71,-351.52 89.84,-506.64 102.23,-524.86 106.65,-530.8 126.84,-539.64 171.91,-559.37 296.7,-568.06 386.72,-571.83"/>
<polygon fill="#000000" stroke="#000000" points="386.84,-575.34 396.97,-572.25 387.12,-568.35 386.84,-575.34"/>
<text text-anchor="middle" x="29.84" y="-310.94" font-family="Times-Roman" font-size="14.00">15965</text>
</g>
<!-- MPI_Send/MPI_Irecv (32B)&#45;&gt;MPI_Send/MPI_Irecv (16B) -->
<g id="edge22" class="edge">
<title>MPI_Send/MPI_Irecv (32B)&#45;&gt;MPI_Send/MPI_Irecv (16B)</title>
<path fill="none" stroke="#000000" d="M765.63,-22.02C830.35,-25.84 912.5,-34.48 939.84,-54 967.28,-73.59 973.84,-88.1 973.84,-121.82 973.84,-272.14 973.84,-272.14 973.84,-272.14 973.84,-282.74 919.69,-445.52 911.84,-452.64 897.44,-465.7 879.07,-474.13 860.22,-479.52"/>
<polygon fill="#000000" stroke="#000000" points="859.15,-476.18 850.34,-482.07 860.9,-482.96 859.15,-476.18"/>
<text text-anchor="middle" x="992.34" y="-267.44" font-family="Times-Roman" font-size="14.00">5809</text>
</g>
<!-- MPI_Send/MPI_Irecv (32B)&#45;&gt;MPI_Send/MPI_Irecv (32B) -->
<g id="edge19" class="edge">
<title>MPI_Send/MPI_Irecv (32B)&#45;&gt;MPI_Send/MPI_Irecv (32B)</title>
<path fill="none" stroke="#000000" d="M765.5,-24.86C776.26,-23.65 783.34,-21.36 783.34,-18 783.34,-15.85 780.43,-14.13 775.51,-12.86"/>
<polygon fill="#000000" stroke="#000000" points="775.95,-9.39 765.5,-11.14 774.76,-16.28 775.95,-9.39"/>
<text text-anchor="middle" x="801.84" y="-14.3" font-family="Times-Roman" font-size="14.00">7205</text>
</g>
<!-- MPI_Send/MPI_Irecv (32B)&#45;&gt;MPI_Send/MPI_Irecv (512B) -->
<g id="edge41" class="edge">
<title>MPI_Send/MPI_Irecv (32B)&#45;&gt;MPI_Send/MPI_Irecv (512B)</title>
<path fill="none" stroke="#000000" d="M594.21,-34.47C575.77,-39.42 556.75,-45.81 539.84,-54 516.71,-65.19 493.83,-83.1 477.19,-97.7"/>
<polygon fill="#000000" stroke="#000000" points="474.66,-95.28 469.55,-104.56 479.33,-100.48 474.66,-95.28"/>
<text text-anchor="middle" x="553.84" y="-57.8" font-family="Times-Roman" font-size="14.00">471</text>
</g>
<!-- MPI_Send/MPI_Irecv (32B)&#45;&gt;MPI_Send/MPI_Irecv (64B) -->
<g id="edge31" class="edge">
<title>MPI_Send/MPI_Irecv (32B)&#45;&gt;MPI_Send/MPI_Irecv (64B)</title>
<path fill="none" stroke="#000000" d="M594.31,-29.04C447.29,-48.31 156.89,-95.89 99.84,-176.64 62.85,-228.99 146.2,-270.28 211.47,-293.33"/>
<polygon fill="#000000" stroke="#000000" points="210.36,-296.65 220.95,-296.6 212.64,-290.03 210.36,-296.65"/>
<text text-anchor="middle" x="113.84" y="-180.44" font-family="Times-Roman" font-size="14.00">628</text>
</g>
<!-- MPI_Send/MPI_Irecv (32B)&#45;&gt;MPI_Send/MPI_Irecv (8B) -->
<g id="edge20" class="edge">
<title>MPI_Send/MPI_Irecv (32B)&#45;&gt;MPI_Send/MPI_Irecv (8B)</title>
<path fill="none" stroke="#000000" d="M716.27,-36.08C746.59,-53.11 784.84,-82.4 784.84,-121.82 784.84,-315.64 784.84,-315.64 784.84,-315.64 784.84,-340.29 778.65,-348.6 760.84,-365.64 755.61,-370.64 749.55,-374.99 743.15,-378.74"/>
<polygon fill="#000000" stroke="#000000" points="741.41,-375.7 734.25,-383.51 744.72,-381.87 741.41,-375.7"/>
<text text-anchor="middle" x="803.34" y="-223.94" font-family="Times-Roman" font-size="14.00">8781</text>
</g>
<!-- MPI_Send/MPI_Irecv (512B)&#45;&gt;MPI_Send/MPI_Irecv (128B) -->
<g id="edge37" class="edge">
<title>MPI_Send/MPI_Irecv (512B)&#45;&gt;MPI_Send/MPI_Irecv (128B)</title>
<path fill="none" stroke="#000000" d="M362.24,-133.35C324.68,-140.68 282.09,-153.66 248.84,-176.64 210.18,-203.34 127.84,-321.91 127.84,-357.14 127.84,-489.64 127.84,-489.64 127.84,-489.64 127.84,-543.16 280.81,-563.02 387.04,-570.37"/>
<polygon fill="#000000" stroke="#000000" points="386.96,-573.87 397.17,-571.04 387.43,-566.89 386.96,-573.87"/>
<text text-anchor="middle" x="141.84" y="-354.44" font-family="Times-Roman" font-size="14.00">480</text>
</g>
<!-- MPI_Send/MPI_Irecv (512B)&#45;&gt;MPI_Send/MPI_Irecv (32B) -->
<g id="edge35" class="edge">
<title>MPI_Send/MPI_Irecv (512B)&#45;&gt;MPI_Send/MPI_Irecv (32B)</title>
<path fill="none" stroke="#000000" d="M489.74,-104.73C528.94,-87.05 590.24,-59.41 632.58,-40.31"/>
<polygon fill="#000000" stroke="#000000" points="634.16,-43.44 641.84,-36.13 631.29,-37.06 634.16,-43.44"/>
<text text-anchor="middle" x="612.84" y="-57.8" font-family="Times-Roman" font-size="14.00">467</text>
</g>
<!-- MPI_Send/MPI_Irecv (512B)&#45;&gt;MPI_Send/MPI_Irecv (512B) -->
<g id="edge11" class="edge">
<title>MPI_Send/MPI_Irecv (512B)&#45;&gt;MPI_Send/MPI_Irecv (512B)</title>
<path fill="none" stroke="#000000" d="M541.62,-132.49C552.34,-130.73 559.34,-127.51 559.34,-122.82 559.34,-119.82 556.46,-117.42 551.58,-115.61"/>
<polygon fill="#000000" stroke="#000000" points="552.17,-112.15 541.62,-113.15 550.49,-118.95 552.17,-112.15"/>
<text text-anchor="middle" x="577.84" y="-119.12" font-family="Times-Roman" font-size="14.00">5659</text>
</g>
<!-- MPI_Send/MPI_Irecv (512B)&#45;&gt;MPI_Send/MPI_Irecv (64B) -->
<g id="edge12" class="edge">
<title>MPI_Send/MPI_Irecv (512B)&#45;&gt;MPI_Send/MPI_Irecv (64B)</title>
<path fill="none" stroke="#000000" d="M401.65,-140.84C368.99,-154.47 328.1,-176.79 303.84,-209.64 287.38,-231.93 281.96,-263.66 280.3,-286.2"/>
<polygon fill="#000000" stroke="#000000" points="276.79,-286.28 279.75,-296.45 283.78,-286.65 276.79,-286.28"/>
<text text-anchor="middle" x="326.84" y="-223.94" font-family="Times-Roman" font-size="14.00">15984</text>
</g>
<!-- MPI_Send/MPI_Irecv (512B)&#45;&gt;MPI_Send/MPI_Irecv (8B) -->
<g id="edge34" class="edge">
<title>MPI_Send/MPI_Irecv (512B)&#45;&gt;MPI_Send/MPI_Irecv (8B)</title>
<path fill="none" stroke="#000000" d="M513.28,-140.91C539.2,-149.56 569.04,-161.47 593.84,-176.64 612.35,-187.97 615.03,-193.77 629.84,-209.64 650.76,-232.07 659.97,-235.79 672.84,-263.64 689.36,-299.41 686.04,-311.42 689.84,-350.64 690.48,-357.28 690.85,-359.05 689.84,-365.64 689.42,-368.32 688.85,-371.08 688.17,-373.81"/>
<polygon fill="#000000" stroke="#000000" points="684.8,-372.86 685.39,-383.44 691.52,-374.8 684.8,-372.86"/>
<text text-anchor="middle" x="697.34" y="-267.44" font-family="Times-Roman" font-size="14.00">3753</text>
</g>
<!-- MPI_Send/MPI_Irecv (64B)&#45;&gt;MPI_Send/MPI_Irecv (128B) -->
<g id="edge32" class="edge">
<title>MPI_Send/MPI_Irecv (64B)&#45;&gt;MPI_Send/MPI_Irecv (128B)</title>
<path fill="none" stroke="#000000" d="M275.73,-332.92C270.23,-359.74 263,-412.5 279.84,-452.64 301.74,-504.83 323.34,-512.18 372.84,-539.64 383.02,-545.29 394.23,-550.15 405.53,-554.28"/>
<polygon fill="#000000" stroke="#000000" points="404.42,-557.61 415.02,-557.59 406.73,-551 404.42,-557.61"/>
<text text-anchor="middle" x="298.34" y="-441.44" font-family="Times-Roman" font-size="14.00">1100</text>
</g>
<!-- MPI_Send/MPI_Irecv (64B)&#45;&gt;MPI_Send/MPI_Irecv (2048B) -->
<g id="edge42" class="edge">
<title>MPI_Send/MPI_Irecv (64B)&#45;&gt;MPI_Send/MPI_Irecv (2048B)</title>
<path fill="none" stroke="#000000" d="M296.94,-296.59C308.5,-285.86 324.58,-272.44 340.84,-263.64 351.18,-258.04 362.56,-253.18 373.96,-249.01"/>
<polygon fill="#000000" stroke="#000000" points="375.24,-252.27 383.53,-245.67 372.94,-245.66 375.24,-252.27"/>
<text text-anchor="middle" x="354.84" y="-267.44" font-family="Times-Roman" font-size="14.00">471</text>
</g>
<!-- MPI_Send/MPI_Irecv (64B)&#45;&gt;MPI_Send/MPI_Irecv (32B) -->
<g id="edge30" class="edge">
<title>MPI_Send/MPI_Irecv (64B)&#45;&gt;MPI_Send/MPI_Irecv (32B)</title>
<path fill="none" stroke="#000000" d="M194.28,-307.71C147.06,-302.77 94.49,-293.97 76.84,-278.64 46.17,-252.01 55.13,-231.77 48.84,-191.64 40.25,-136.95 61.57,-72.51 84.84,-54 122.87,-23.74 425.54,-19.05 583.94,-18.69"/>
<polygon fill="#000000" stroke="#000000" points="584.16,-22.19 594.16,-18.67 584.15,-15.19 584.16,-22.19"/>
<text text-anchor="middle" x="62.84" y="-180.44" font-family="Times-Roman" font-size="14.00">627</text>
</g>
<!-- MPI_Send/MPI_Irecv (64B)&#45;&gt;MPI_Send/MPI_Irecv (512B) -->
<g id="edge13" class="edge">
<title>MPI_Send/MPI_Irecv (64B)&#45;&gt;MPI_Send/MPI_Irecv (512B)</title>
<path fill="none" stroke="#000000" d="M263.24,-296.4C244.61,-274.88 219.27,-237.52 237.84,-209.64 263.47,-171.16 309.53,-149.93 352.37,-138.22"/>
<polygon fill="#000000" stroke="#000000" points="353.51,-141.54 362.32,-135.66 351.76,-134.77 353.51,-141.54"/>
<text text-anchor="middle" x="260.84" y="-223.94" font-family="Times-Roman" font-size="14.00">15995</text>
</g>
<!-- MPI_Send/MPI_Irecv (64B)&#45;&gt;MPI_Send/MPI_Irecv (64B) -->
<g id="edge14" class="edge">
<title>MPI_Send/MPI_Irecv (64B)&#45;&gt;MPI_Send/MPI_Irecv (64B)</title>
<path fill="none" stroke="#000000" d="M365.5,-321.5C376.26,-320.29 383.34,-318 383.34,-314.64 383.34,-312.49 380.43,-310.77 375.51,-309.5"/>
<polygon fill="#000000" stroke="#000000" points="375.95,-306.03 365.5,-307.78 374.76,-312.92 375.95,-306.03"/>
<text text-anchor="middle" x="401.84" y="-310.94" font-family="Times-Roman" font-size="14.00">4386</text>
</g>
<!-- MPI_Send/MPI_Irecv (64B)&#45;&gt;MPI_Send/MPI_Irecv (8B) -->
<g id="edge15" class="edge">
<title>MPI_Send/MPI_Irecv (64B)&#45;&gt;MPI_Send/MPI_Irecv (8B)</title>
<path fill="none" stroke="#000000" d="M297.26,-332.78C310.81,-345.69 328.78,-361.8 337.84,-365.64 378.72,-382.96 492.68,-379 536.84,-383.64 552.89,-385.33 569.94,-387.25 586.46,-389.19"/>
<polygon fill="#000000" stroke="#000000" points="586.32,-392.7 596.66,-390.39 587.14,-385.74 586.32,-392.7"/>
<text text-anchor="middle" x="356.34" y="-354.44" font-family="Times-Roman" font-size="14.00">7500</text>
</g>
<!-- MPI_Send/MPI_Irecv (8B)&#45;&gt;MPI_Send/MPI_Irecv (128B) -->
<g id="edge16" class="edge">
<title>MPI_Send/MPI_Irecv (8B)&#45;&gt;MPI_Send/MPI_Irecv (128B)</title>
<path fill="none" stroke="#000000" d="M665.25,-419.65C643.14,-447.23 601.03,-499.38 592.84,-506.64 573.17,-524.07 548.6,-540.13 528.06,-552.25"/>
<polygon fill="#000000" stroke="#000000" points="526.14,-549.32 519.24,-557.37 529.65,-555.38 526.14,-549.32"/>
<text text-anchor="middle" x="644.84" y="-484.94" font-family="Times-Roman" font-size="14.00">14293</text>
</g>
<!-- MPI_Send/MPI_Irecv (8B)&#45;&gt;MPI_Send/MPI_Irecv (16B) -->
<g id="edge27" class="edge">
<title>MPI_Send/MPI_Irecv (8B)&#45;&gt;MPI_Send/MPI_Irecv (16B)</title>
<path fill="none" stroke="#000000" d="M676.02,-419.9C675.27,-430.31 676.12,-443.31 682.84,-452.64 686.17,-457.27 690.24,-461.3 694.78,-464.79"/>
<polygon fill="#000000" stroke="#000000" points="693.11,-467.89 703.37,-470.53 697,-462.07 693.11,-467.89"/>
<text text-anchor="middle" x="701.34" y="-441.44" font-family="Times-Roman" font-size="14.00">2512</text>
</g>
<!-- MPI_Send/MPI_Irecv (8B)&#45;&gt;MPI_Send/MPI_Irecv (2048B) -->
<g id="edge9" class="edge">
<title>MPI_Send/MPI_Irecv (8B)&#45;&gt;MPI_Send/MPI_Irecv (2048B)</title>
<path fill="none" stroke="#000000" d="M629.97,-383.47C617.26,-378.34 603.79,-372.29 591.84,-365.64 570.16,-353.58 563.98,-350.56 546.84,-332.64 521.36,-306 526.47,-290.12 500.84,-263.64 496.88,-259.56 492.4,-255.63 487.78,-251.97"/>
<polygon fill="#000000" stroke="#000000" points="489.54,-248.91 479.43,-245.72 485.34,-254.51 489.54,-248.91"/>
<text text-anchor="middle" x="565.34" y="-310.94" font-family="Times-Roman" font-size="14.00">5260</text>
</g>
<!-- MPI_Send/MPI_Irecv (8B)&#45;&gt;MPI_Send/MPI_Irecv (32B) -->
<g id="edge21" class="edge">
<title>MPI_Send/MPI_Irecv (8B)&#45;&gt;MPI_Send/MPI_Irecv (32B)</title>
<path fill="none" stroke="#000000" d="M693.43,-383.38C697.34,-377.99 701.21,-371.83 703.84,-365.64 719.18,-329.44 716.27,-317.79 719.84,-278.64 727.63,-193.13 702.33,-92.97 688.39,-45.96"/>
<polygon fill="#000000" stroke="#000000" points="691.7,-44.78 685.45,-36.23 685,-46.81 691.7,-44.78"/>
<text text-anchor="middle" x="739.34" y="-223.94" font-family="Times-Roman" font-size="14.00">8771</text>
</g>
<!-- MPI_Send/MPI_Irecv (8B)&#45;&gt;MPI_Send/MPI_Irecv (512B) -->
<g id="edge10" class="edge">
<title>MPI_Send/MPI_Irecv (8B)&#45;&gt;MPI_Send/MPI_Irecv (512B)</title>
<path fill="none" stroke="#000000" d="M678.53,-383.59C677.44,-361.94 673.12,-324.1 656.84,-296.64 650.57,-286.07 642.95,-288.66 635.84,-278.64 616.77,-251.79 630.59,-234.36 608.84,-209.64 582.87,-180.14 544.23,-158.84 511.78,-144.84"/>
<polygon fill="#000000" stroke="#000000" points="512.94,-141.53 502.37,-140.9 510.24,-147.99 512.94,-141.53"/>
<text text-anchor="middle" x="654.34" y="-267.44" font-family="Times-Roman" font-size="14.00">3743</text>
</g>
<!-- MPI_Send/MPI_Irecv (8B)&#45;&gt;MPI_Send/MPI_Irecv (64B) -->
<g id="edge26" class="edge">
<title>MPI_Send/MPI_Irecv (8B)&#45;&gt;MPI_Send/MPI_Irecv (64B)</title>
<path fill="none" stroke="#000000" d="M596.65,-387.3C561.22,-381.22 519.38,-373.61 481.84,-365.64 439.34,-356.62 392.19,-345.04 354.15,-335.29"/>
<polygon fill="#000000" stroke="#000000" points="354.73,-331.83 344.17,-332.73 352.99,-338.61 354.73,-331.83"/>
<text text-anchor="middle" x="500.34" y="-354.44" font-family="Times-Roman" font-size="14.00">7512</text>
</g>
<!-- MPI_Send/MPI_Irecv (8B)&#45;&gt;&#9632; -->
<g id="edge43" class="edge">
<title>MPI_Send/MPI_Irecv (8B)&#45;&gt;&#9632;</title>
<path fill="none" stroke="black" d="M760.97,-389.37C775.14,-384.13 788.58,-376.55 798.84,-365.64 848.82,-312.43 854.89,-223.12 853.34,-169.21"/>
<polygon fill="black" stroke="black" points="856.83,-168.77 852.94,-158.92 849.83,-169.05 856.83,-168.77"/>
<text text-anchor="middle" x="849.84" y="-267.44" font-family="Times-Roman" font-size="14.00">3</text>
</g>
</g>
</svg>
