<?xml version="1.0" encoding="UTF-8" standalone="no"?>
<!DOCTYPE svg PUBLIC "-//W3C//DTD SVG 1.1//EN"
 "http://www.w3.org/Graphics/SVG/1.1/DTD/svg11.dtd">
<!-- Generated by graphviz version 2.44.0 (0)
 -->
<!-- Pages: 1 -->
<svg width="239pt" height="278pt"
 viewBox="0.00 0.00 239.00 278.45" xmlns="http://www.w3.org/2000/svg" xmlns:xlink="http://www.w3.org/1999/xlink">
<g id="graph0" class="graph" transform="scale(1 1) rotate(0) translate(4 274.45)">
<polygon fill="white" stroke="transparent" points="-4,4 -4,-274.45 235,-274.45 235,4 -4,4"/>
<!-- &#9679; -->
<g id="node1" class="node">
<title>&#9679;</title>
<ellipse fill="none" stroke="black" cx="115.5" cy="-240.05" rx="30.31" ry="30.31"/>
<text text-anchor="middle" x="115.5" y="-232.55" font-family="Times-Roman" font-size="30.00">●</text>
</g>
<!-- MPI_Send/MPI_Irecv (1073741824B) -->
<g id="node2" class="node">
<title>MPI_Send/MPI_Irecv (1073741824B)</title>
<polygon fill="#9b9bff" stroke="black" points="231,-158.64 0,-158.64 0,-122.64 231,-122.64 231,-158.64"/>
<text text-anchor="middle" x="115.5" y="-144.04" font-family="Times-Roman" font-size="12.00">MPI_Send/MPI_Irecv (1073741824B)</text>
<text text-anchor="middle" x="115.5" y="-131.04" font-family="Times-Roman" font-size="12.00"> Load: 1234.49 MB/s (2)</text>
</g>
<!-- &#9679;&#45;&gt;MPI_Send/MPI_Irecv (1073741824B) -->
<g id="edge1" class="edge">
<title>&#9679;&#45;&gt;MPI_Send/MPI_Irecv (1073741824B)</title>
<path fill="none" stroke="black" d="M115.5,-209.56C115.5,-196.74 115.5,-181.8 115.5,-169.21"/>
<polygon fill="black" stroke="black" points="119,-168.85 115.5,-158.85 112,-168.85 119,-168.85"/>
<text text-anchor="middle" x="120.5" y="-180.44" font-family="Times-Roman" font-size="14.00">1</text>
</g>
<!-- &#9632; -->
<g id="node3" class="node">
<title>&#9632;</title>
<ellipse fill="none" stroke="black" cx="115.5" cy="-35.82" rx="31.66" ry="31.66"/>
<ellipse fill="none" stroke="black" cx="115.5" cy="-35.82" rx="35.64" ry="35.64"/>
<text text-anchor="middle" x="115.5" y="-28.32" font-family="Times-Roman" font-size="30.00">■</text>
</g>
<!-- MPI_Send/MPI_Irecv (1073741824B)&#45;&gt;&#9632; -->
<g id="edge2" class="edge">
<title>MPI_Send/MPI_Irecv (1073741824B)&#45;&gt;&#9632;</title>
<path fill="none" stroke="black" d="M115.5,-122.2C115.5,-111.13 115.5,-96.27 115.5,-82.04"/>
<polygon fill="black" stroke="black" points="119,-81.86 115.5,-71.86 112,-81.86 119,-81.86"/>
<text text-anchor="middle" x="120.5" y="-93.44" font-family="Times-Roman" font-size="14.00">1</text>
</g>
</g>
</svg>
