<?xml version="1.0" encoding="UTF-8" standalone="no"?>
<!DOCTYPE svg PUBLIC "-//W3C//DTD SVG 1.1//EN"
 "http://www.w3.org/Graphics/SVG/1.1/DTD/svg11.dtd">
<!-- Generated by graphviz version 2.44.0 (0)
 -->
<!-- Pages: 1 -->
<svg width="491pt" height="626pt"
 viewBox="0.00 0.00 490.82 626.45" xmlns="http://www.w3.org/2000/svg" xmlns:xlink="http://www.w3.org/1999/xlink">
<g id="graph0" class="graph" transform="scale(1 1) rotate(0) translate(4 622.45)">
<polygon fill="white" stroke="transparent" points="-4,4 -4,-622.45 486.82,-622.45 486.82,4 -4,4"/>
<!-- &#9679; -->
<g id="node1" class="node">
<title>&#9679;</title>
<ellipse fill="none" stroke="black" cx="288.82" cy="-588.05" rx="30.31" ry="30.31"/>
<text text-anchor="middle" x="288.82" y="-580.55" font-family="Times-Roman" font-size="30.00">â—</text>
</g>
<!-- read+/usr/lib64 -->
<g id="node3" class="node">
<title>read+/usr/lib64</title>
<polygon fill="#ffffff" stroke="black" points="342.82,-506.64 234.82,-506.64 234.82,-470.64 342.82,-470.64 342.82,-506.64"/>
<text text-anchor="middle" x="288.82" y="-485.54" font-family="Times-Roman" font-size="12.00">read+/usr/lib64</text>
</g>
<!-- &#9679;&#45;&gt;read+/usr/lib64 -->
<g id="edge1" class="edge">
<title>&#9679;&#45;&gt;read+/usr/lib64</title>
<path fill="none" stroke="#000000" d="M288.82,-557.56C288.82,-544.74 288.82,-529.8 288.82,-517.21"/>
<polygon fill="#000000" stroke="#000000" points="292.32,-516.85 288.82,-506.85 285.32,-516.85 292.32,-516.85"/>
<text text-anchor="middle" x="298.32" y="-528.44" font-family="Times-Roman" font-size="14.00">12</text>
</g>
<!-- read+/proc/filesystems -->
<g id="node2" class="node">
<title>read+/proc/filesystems</title>
<polygon fill="#ffffff" stroke="black" points="223.82,-419.64 69.82,-419.64 69.82,-383.64 223.82,-383.64 223.82,-419.64"/>
<text text-anchor="middle" x="146.82" y="-398.54" font-family="Times-Roman" font-size="12.00">read+/proc/filesystems</text>
</g>
<!-- read+/proc/filesystems&#45;&gt;read+/proc/filesystems -->
<g id="edge4" class="edge">
<title>read+/proc/filesystems&#45;&gt;read+/proc/filesystems</title>
<path fill="none" stroke="#000000" d="M223.98,-408.67C234.67,-407.51 241.82,-405.17 241.82,-401.64 241.82,-399.38 238.89,-397.61 233.97,-396.32"/>
<polygon fill="#000000" stroke="#000000" points="234.43,-392.85 223.98,-394.61 233.25,-399.75 234.43,-392.85"/>
<text text-anchor="middle" x="251.32" y="-397.94" font-family="Times-Roman" font-size="14.00">12</text>
</g>
<!-- read+/usr/share -->
<g id="node4" class="node">
<title>read+/usr/share</title>
<polygon fill="#ffffff" stroke="black" points="203.32,-332.64 90.32,-332.64 90.32,-296.64 203.32,-296.64 203.32,-332.64"/>
<text text-anchor="middle" x="146.82" y="-311.54" font-family="Times-Roman" font-size="12.00">read+/usr/share</text>
</g>
<!-- read+/proc/filesystems&#45;&gt;read+/usr/share -->
<g id="edge5" class="edge">
<title>read+/proc/filesystems&#45;&gt;read+/usr/share</title>
<path fill="none" stroke="#000000" d="M146.82,-383.44C146.82,-371.8 146.82,-356.19 146.82,-342.88"/>
<polygon fill="#000000" stroke="#000000" points="150.32,-342.82 146.82,-332.82 143.32,-342.82 150.32,-342.82"/>
<text text-anchor="middle" x="156.32" y="-354.44" font-family="Times-Roman" font-size="14.00">12</text>
</g>
<!-- read+/usr/lib64&#45;&gt;read+/proc/filesystems -->
<g id="edge3" class="edge">
<title>read+/usr/lib64&#45;&gt;read+/proc/filesystems</title>
<path fill="none" stroke="#000000" d="M260.08,-470.44C238.24,-457.36 208,-439.26 184.26,-425.05"/>
<polygon fill="#000000" stroke="#000000" points="185.89,-421.95 175.51,-419.82 182.3,-427.95 185.89,-421.95"/>
<text text-anchor="middle" x="235.32" y="-441.44" font-family="Times-Roman" font-size="14.00">12</text>
</g>
<!-- read+/usr/lib64&#45;&gt;read+/usr/lib64 -->
<g id="edge2" class="edge">
<title>read+/usr/lib64&#45;&gt;read+/usr/lib64</title>
<path fill="none" stroke="#000000" d="M342.83,-496.16C353.35,-495.29 360.82,-492.78 360.82,-488.64 360.82,-485.99 357.75,-484 352.78,-482.69"/>
<polygon fill="#000000" stroke="#000000" points="353.25,-479.22 342.83,-481.12 352.16,-486.13 353.25,-479.22"/>
<text text-anchor="middle" x="370.32" y="-484.94" font-family="Times-Roman" font-size="14.00">36</text>
</g>
<!-- read+socket -->
<g id="node9" class="node">
<title>read+socket</title>
<polygon fill="#ef9a9a" stroke="black" points="225.82,-245.64 133.82,-245.64 133.82,-209.64 225.82,-209.64 225.82,-245.64"/>
<text text-anchor="middle" x="179.82" y="-224.54" font-family="Times-Roman" font-size="12.00">read+socket</text>
</g>
<!-- read+/usr/lib64&#45;&gt;read+socket -->
<g id="edge14" class="edge">
<title>read+/usr/lib64&#45;&gt;read+socket</title>
<path fill="none" stroke="#e53935" d="M288.76,-470.61C287.94,-435.69 282.37,-354.44 249.82,-296.64 240.23,-279.61 225.07,-264.12 211.3,-252.24"/>
<polygon fill="#e53935" stroke="#e53935" points="213.34,-249.38 203.41,-245.68 208.86,-254.76 213.34,-249.38"/>
<text text-anchor="middle" x="279.82" y="-354.44" font-family="Times-Roman" font-size="14.00">6</text>
</g>
<!-- read+/usr/share&#45;&gt;read+/usr/share -->
<g id="edge6" class="edge">
<title>read+/usr/share&#45;&gt;read+/usr/share</title>
<path fill="none" stroke="#000000" d="M203.35,-322.11C213.89,-321.19 221.32,-318.7 221.32,-314.64 221.32,-312.04 218.27,-310.08 213.31,-308.77"/>
<polygon fill="#000000" stroke="#000000" points="213.77,-305.3 203.35,-307.17 212.66,-312.21 213.77,-305.3"/>
<text text-anchor="middle" x="230.82" y="-310.94" font-family="Times-Roman" font-size="14.00">18</text>
</g>
<!-- write+pipe -->
<g id="node5" class="node">
<title>write+pipe</title>
<polygon fill="#ffffff" stroke="black" points="96.82,-245.64 14.82,-245.64 14.82,-209.64 96.82,-209.64 96.82,-245.64"/>
<text text-anchor="middle" x="55.82" y="-224.54" font-family="Times-Roman" font-size="12.00">write+pipe</text>
</g>
<!-- read+/usr/share&#45;&gt;write+pipe -->
<g id="edge7" class="edge">
<title>read+/usr/share&#45;&gt;write+pipe</title>
<path fill="none" stroke="#000000" d="M128.4,-296.44C114.96,-283.88 96.55,-266.69 81.64,-252.76"/>
<polygon fill="#000000" stroke="#000000" points="83.9,-250.08 74.21,-245.82 79.13,-255.2 83.9,-250.08"/>
<text text-anchor="middle" x="116.32" y="-267.44" font-family="Times-Roman" font-size="14.00">12</text>
</g>
<!-- read+/usr/share&#45;&gt;read+socket -->
<g id="edge8" class="edge">
<title>read+/usr/share&#45;&gt;read+socket</title>
<path fill="none" stroke="#e53935" d="M144.23,-296.38C143.44,-286.46 143.69,-273.96 147.82,-263.64 149.22,-260.15 151.13,-256.79 153.34,-253.62"/>
<polygon fill="#e53935" stroke="#e53935" points="156.14,-255.72 159.7,-245.75 150.7,-251.32 156.14,-255.72"/>
<text text-anchor="middle" x="152.82" y="-267.44" font-family="Times-Roman" font-size="14.00">6</text>
</g>
<!-- &#9632; -->
<g id="node10" class="node">
<title>&#9632;</title>
<ellipse fill="none" stroke="black" cx="35.82" cy="-122.82" rx="31.66" ry="31.66"/>
<ellipse fill="none" stroke="black" cx="35.82" cy="-122.82" rx="35.64" ry="35.64"/>
<text text-anchor="middle" x="35.82" y="-115.32" font-family="Times-Roman" font-size="30.00">â– </text>
</g>
<!-- write+pipe&#45;&gt;&#9632; -->
<g id="edge20" class="edge">
<title>write+pipe&#45;&gt;&#9632;</title>
<path fill="none" stroke="#000000" d="M52.43,-209.2C50.22,-197.84 47.23,-182.48 44.4,-167.91"/>
<polygon fill="#000000" stroke="#000000" points="47.82,-167.16 42.47,-158.02 40.95,-168.5 47.82,-167.16"/>
<text text-anchor="middle" x="58.32" y="-180.44" font-family="Times-Roman" font-size="14.00">12</text>
</g>
<!-- read+/etc/authselect -->
<g id="node6" class="node">
<title>read+/etc/authselect</title>
<polygon fill="#ef9a9a" stroke="black" points="391.82,-140.82 249.82,-140.82 249.82,-104.82 391.82,-104.82 391.82,-140.82"/>
<text text-anchor="middle" x="320.82" y="-119.72" font-family="Times-Roman" font-size="12.00">read+/etc/authselect</text>
</g>
<!-- read+/etc/authselect&#45;&gt;read+/etc/authselect -->
<g id="edge10" class="edge">
<title>read+/etc/authselect&#45;&gt;read+/etc/authselect</title>
<path fill="none" stroke="#e53935" d="M392.05,-133.03C402.65,-131.44 409.82,-128.03 409.82,-122.82 409.82,-119.48 406.88,-116.88 401.97,-115.03"/>
<polygon fill="#e53935" stroke="#e53935" points="402.59,-111.58 392.05,-112.61 400.93,-118.38 402.59,-111.58"/>
<text text-anchor="middle" x="414.82" y="-119.12" font-family="Times-Roman" font-size="14.00">6</text>
</g>
<!-- read+/etc/passwd -->
<g id="node8" class="node">
<title>read+/etc/passwd</title>
<polygon fill="#ef9a9a" stroke="black" points="445.82,-36 321.82,-36 321.82,0 445.82,0 445.82,-36"/>
<text text-anchor="middle" x="383.82" y="-14.9" font-family="Times-Roman" font-size="12.00">read+/etc/passwd</text>
</g>
<!-- read+/etc/authselect&#45;&gt;read+/etc/passwd -->
<g id="edge11" class="edge">
<title>read+/etc/authselect&#45;&gt;read+/etc/passwd</title>
<path fill="none" stroke="#e53935" d="M331.51,-104.38C341.52,-88.03 356.62,-63.39 368.03,-44.78"/>
<polygon fill="#e53935" stroke="#e53935" points="371.05,-46.54 373.29,-36.18 365.08,-42.88 371.05,-46.54"/>
<text text-anchor="middle" x="365.82" y="-57.8" font-family="Times-Roman" font-size="14.00">6</text>
</g>
<!-- read+/etc/group -->
<g id="node7" class="node">
<title>read+/etc/group</title>
<polygon fill="#ef9a9a" stroke="black" points="203.82,-140.82 89.82,-140.82 89.82,-104.82 203.82,-104.82 203.82,-140.82"/>
<text text-anchor="middle" x="146.82" y="-119.72" font-family="Times-Roman" font-size="12.00">read+/etc/group</text>
</g>
<!-- read+/etc/group&#45;&gt;read+/etc/group -->
<g id="edge16" class="edge">
<title>read+/etc/group&#45;&gt;read+/etc/group</title>
<path fill="none" stroke="#e53935" d="M204.05,-133.45C214.49,-132.11 221.82,-128.56 221.82,-122.82 221.82,-119.14 218.81,-116.36 213.9,-114.49"/>
<polygon fill="#e53935" stroke="#e53935" points="214.58,-111.05 204.05,-112.19 212.99,-117.87 214.58,-111.05"/>
<text text-anchor="middle" x="226.82" y="-119.12" font-family="Times-Roman" font-size="14.00">6</text>
</g>
<!-- read+/etc/group&#45;&gt;read+socket -->
<g id="edge17" class="edge">
<title>read+/etc/group&#45;&gt;read+socket</title>
<path fill="none" stroke="#e53935" d="M152.34,-141C157.46,-156.97 165.17,-181 171.12,-199.54"/>
<polygon fill="#e53935" stroke="#e53935" points="167.83,-200.75 174.22,-209.2 174.5,-198.61 167.83,-200.75"/>
<text text-anchor="middle" x="172.82" y="-180.44" font-family="Times-Roman" font-size="14.00">6</text>
</g>
<!-- read+/etc/passwd&#45;&gt;read+/usr/lib64 -->
<g id="edge13" class="edge">
<title>read+/etc/passwd&#45;&gt;read+/usr/lib64</title>
<path fill="none" stroke="#e53935" d="M403.02,-36.28C421.87,-55.23 447.82,-87.55 447.82,-121.82 447.82,-402.64 447.82,-402.64 447.82,-402.64 447.82,-447.89 397.11,-469.14 352.97,-479.07"/>
<polygon fill="#e53935" stroke="#e53935" points="352.17,-475.66 343.09,-481.13 353.6,-482.51 352.17,-475.66"/>
<text text-anchor="middle" x="452.82" y="-267.44" font-family="Times-Roman" font-size="14.00">6</text>
</g>
<!-- read+/etc/passwd&#45;&gt;read+/etc/passwd -->
<g id="edge12" class="edge">
<title>read+/etc/passwd&#45;&gt;read+/etc/passwd</title>
<path fill="none" stroke="#e53935" d="M445.87,-25.35C456.48,-24.35 463.82,-21.9 463.82,-18 463.82,-15.5 460.81,-13.6 455.85,-12.29"/>
<polygon fill="#e53935" stroke="#e53935" points="456.31,-8.82 445.87,-10.65 455.17,-15.73 456.31,-8.82"/>
<text text-anchor="middle" x="473.32" y="-14.3" font-family="Times-Roman" font-size="14.00">12</text>
</g>
<!-- read+socket&#45;&gt;read+/usr/share -->
<g id="edge19" class="edge">
<title>read+socket&#45;&gt;read+/usr/share</title>
<path fill="none" stroke="#e53935" d="M173.15,-245.82C168.59,-257.56 162.45,-273.37 157.25,-286.77"/>
<polygon fill="#e53935" stroke="#e53935" points="153.85,-285.85 153.5,-296.44 160.38,-288.38 153.85,-285.85"/>
<text text-anchor="middle" x="169.82" y="-267.44" font-family="Times-Roman" font-size="14.00">6</text>
</g>
<!-- read+socket&#45;&gt;read+/etc/authselect -->
<g id="edge9" class="edge">
<title>read+socket&#45;&gt;read+/etc/authselect</title>
<path fill="none" stroke="#e53935" d="M203.42,-209.43C226.8,-192.38 262.79,-166.14 288.75,-147.2"/>
<polygon fill="#e53935" stroke="#e53935" points="291.12,-149.81 297.14,-141.09 287,-144.15 291.12,-149.81"/>
<text text-anchor="middle" x="250.82" y="-180.44" font-family="Times-Roman" font-size="14.00">6</text>
</g>
<!-- read+socket&#45;&gt;read+/etc/group -->
<g id="edge15" class="edge">
<title>read+socket&#45;&gt;read+/etc/group</title>
<path fill="none" stroke="#e53935" d="M159.68,-209.54C154.9,-204.33 150.43,-198.22 147.82,-191.64 142.76,-178.9 142.1,-163.72 142.88,-150.96"/>
<polygon fill="#e53935" stroke="#e53935" points="146.37,-151.19 143.81,-140.91 139.4,-150.55 146.37,-151.19"/>
<text text-anchor="middle" x="152.82" y="-180.44" font-family="Times-Roman" font-size="14.00">6</text>
</g>
<!-- read+socket&#45;&gt;read+socket -->
<g id="edge18" class="edge">
<title>read+socket&#45;&gt;read+socket</title>
<path fill="none" stroke="#e53935" d="M225.84,-235.32C236.23,-234.63 243.82,-232.07 243.82,-227.64 243.82,-224.87 240.85,-222.83 236.09,-221.52"/>
<polygon fill="#e53935" stroke="#e53935" points="236.26,-218.01 225.84,-219.96 235.2,-224.93 236.26,-218.01"/>
<text text-anchor="middle" x="253.32" y="-223.94" font-family="Times-Roman" font-size="14.00">18</text>
</g>
</g>
</svg>
