<?xml version="1.0" encoding="UTF-8" standalone="no"?>
<!DOCTYPE svg PUBLIC "-//W3C//DTD SVG 1.1//EN"
 "http://www.w3.org/Graphics/SVG/1.1/DTD/svg11.dtd">
<!-- Generated by graphviz version 2.44.0 (0)
 -->
<!-- Pages: 1 -->
<svg width="190pt" height="539pt"
 viewBox="0.00 0.00 190.00 539.45" xmlns="http://www.w3.org/2000/svg" xmlns:xlink="http://www.w3.org/1999/xlink">
<g id="graph0" class="graph" transform="scale(1 1) rotate(0) translate(4 535.45)">
<polygon fill="white" stroke="transparent" points="-4,4 -4,-535.45 186,-535.45 186,4 -4,4"/>
<!-- &#9679; -->
<g id="node1" class="node">
<title>&#9679;</title>
<ellipse fill="none" stroke="black" cx="77" cy="-501.05" rx="30.31" ry="30.31"/>
<text text-anchor="middle" x="77" y="-493.55" font-family="Times-Roman" font-size="30.00">●</text>
</g>
<!-- read+/usr/lib64 -->
<g id="node3" class="node">
<title>read+/usr/lib64</title>
<polygon fill="#d2d2ff" stroke="black" points="131,-419.64 23,-419.64 23,-383.64 131,-383.64 131,-419.64"/>
<text text-anchor="middle" x="77" y="-398.54" font-family="Times-Roman" font-size="12.00">read+/usr/lib64</text>
</g>
<!-- &#9679;&#45;&gt;read+/usr/lib64 -->
<g id="edge1" class="edge">
<title>&#9679;&#45;&gt;read+/usr/lib64</title>
<path fill="none" stroke="black" d="M77,-470.56C77,-457.74 77,-442.8 77,-430.21"/>
<polygon fill="black" stroke="black" points="80.5,-429.85 77,-419.85 73.5,-429.85 80.5,-429.85"/>
<text text-anchor="middle" x="82" y="-441.44" font-family="Times-Roman" font-size="14.00">6</text>
</g>
<!-- read+/proc/filesystems -->
<g id="node2" class="node">
<title>read+/proc/filesystems</title>
<polygon fill="#e8e8ff" stroke="black" points="154,-332.64 0,-332.64 0,-296.64 154,-296.64 154,-332.64"/>
<text text-anchor="middle" x="77" y="-311.54" font-family="Times-Roman" font-size="12.00">read+/proc/filesystems</text>
</g>
<!-- read+/proc/filesystems&#45;&gt;read+/proc/filesystems -->
<g id="edge4" class="edge">
<title>read+/proc/filesystems&#45;&gt;read+/proc/filesystems</title>
<path fill="none" stroke="#000000" d="M154.16,-321.67C164.85,-320.51 172,-318.17 172,-314.64 172,-312.38 169.07,-310.61 164.15,-309.32"/>
<polygon fill="#000000" stroke="#000000" points="164.61,-305.85 154.16,-307.61 163.43,-312.75 164.61,-305.85"/>
<text text-anchor="middle" x="177" y="-310.94" font-family="Times-Roman" font-size="14.00">6</text>
</g>
<!-- read+/usr/share -->
<g id="node4" class="node">
<title>read+/usr/share</title>
<polygon fill="#e8e8ff" stroke="black" points="133.5,-245.64 20.5,-245.64 20.5,-209.64 133.5,-209.64 133.5,-245.64"/>
<text text-anchor="middle" x="77" y="-224.54" font-family="Times-Roman" font-size="12.00">read+/usr/share</text>
</g>
<!-- read+/proc/filesystems&#45;&gt;read+/usr/share -->
<g id="edge5" class="edge">
<title>read+/proc/filesystems&#45;&gt;read+/usr/share</title>
<path fill="none" stroke="#000000" d="M77,-296.44C77,-284.8 77,-269.19 77,-255.88"/>
<polygon fill="#000000" stroke="#000000" points="80.5,-255.82 77,-245.82 73.5,-255.82 80.5,-255.82"/>
<text text-anchor="middle" x="82" y="-267.44" font-family="Times-Roman" font-size="14.00">6</text>
</g>
<!-- read+/usr/lib64&#45;&gt;read+/proc/filesystems -->
<g id="edge3" class="edge">
<title>read+/usr/lib64&#45;&gt;read+/proc/filesystems</title>
<path fill="none" stroke="#000000" d="M77,-383.44C77,-371.8 77,-356.19 77,-342.88"/>
<polygon fill="#000000" stroke="#000000" points="80.5,-342.82 77,-332.82 73.5,-342.82 80.5,-342.82"/>
<text text-anchor="middle" x="82" y="-354.44" font-family="Times-Roman" font-size="14.00">6</text>
</g>
<!-- read+/usr/lib64&#45;&gt;read+/usr/lib64 -->
<g id="edge2" class="edge">
<title>read+/usr/lib64&#45;&gt;read+/usr/lib64</title>
<path fill="none" stroke="#000000" d="M131.01,-409.16C141.53,-408.29 149,-405.78 149,-401.64 149,-398.99 145.93,-397 140.96,-395.69"/>
<polygon fill="#000000" stroke="#000000" points="141.43,-392.22 131.01,-394.12 140.34,-399.13 141.43,-392.22"/>
<text text-anchor="middle" x="158.5" y="-397.94" font-family="Times-Roman" font-size="14.00">18</text>
</g>
<!-- read+/usr/share&#45;&gt;read+/usr/share -->
<g id="edge6" class="edge">
<title>read+/usr/share&#45;&gt;read+/usr/share</title>
<path fill="none" stroke="#000000" d="M133.53,-235.11C144.07,-234.19 151.5,-231.7 151.5,-227.64 151.5,-225.04 148.45,-223.08 143.49,-221.77"/>
<polygon fill="#000000" stroke="#000000" points="143.95,-218.3 133.53,-220.17 142.84,-225.21 143.95,-218.3"/>
<text text-anchor="middle" x="156.5" y="-223.94" font-family="Times-Roman" font-size="14.00">6</text>
</g>
<!-- write+pipe -->
<g id="node5" class="node">
<title>write+pipe</title>
<polygon fill="#f3f3ff" stroke="black" points="118,-158.64 36,-158.64 36,-122.64 118,-122.64 118,-158.64"/>
<text text-anchor="middle" x="77" y="-137.54" font-family="Times-Roman" font-size="12.00">write+pipe</text>
</g>
<!-- read+/usr/share&#45;&gt;write+pipe -->
<g id="edge7" class="edge">
<title>read+/usr/share&#45;&gt;write+pipe</title>
<path fill="none" stroke="#000000" d="M77,-209.44C77,-197.8 77,-182.19 77,-168.88"/>
<polygon fill="#000000" stroke="#000000" points="80.5,-168.82 77,-158.82 73.5,-168.82 80.5,-168.82"/>
<text text-anchor="middle" x="82" y="-180.44" font-family="Times-Roman" font-size="14.00">6</text>
</g>
<!-- &#9632; -->
<g id="node6" class="node">
<title>&#9632;</title>
<ellipse fill="none" stroke="black" cx="77" cy="-35.82" rx="31.66" ry="31.66"/>
<ellipse fill="none" stroke="black" cx="77" cy="-35.82" rx="35.64" ry="35.64"/>
<text text-anchor="middle" x="77" y="-28.32" font-family="Times-Roman" font-size="30.00">■</text>
</g>
<!-- write+pipe&#45;&gt;&#9632; -->
<g id="edge8" class="edge">
<title>write+pipe&#45;&gt;&#9632;</title>
<path fill="none" stroke="black" d="M77,-122.2C77,-111.13 77,-96.27 77,-82.04"/>
<polygon fill="black" stroke="black" points="80.5,-81.86 77,-71.86 73.5,-81.86 80.5,-81.86"/>
<text text-anchor="middle" x="82" y="-93.44" font-family="Times-Roman" font-size="14.00">6</text>
</g>
</g>
</svg>
