<?xml version="1.0" encoding="UTF-8" standalone="no"?>
<!DOCTYPE svg PUBLIC "-//W3C//DTD SVG 1.1//EN"
 "http://www.w3.org/Graphics/SVG/1.1/DTD/svg11.dtd">
<!-- Generated by graphviz version 2.44.0 (0)
 -->
<!-- Pages: 1 -->
<svg width="1133pt" height="626pt"
 viewBox="0.00 0.00 1133.00 626.45" xmlns="http://www.w3.org/2000/svg" xmlns:xlink="http://www.w3.org/1999/xlink">
<g id="graph0" class="graph" transform="scale(1 1) rotate(0) translate(4 622.45)">
<polygon fill="white" stroke="transparent" points="-4,4 -4,-622.45 1129,-622.45 1129,4 -4,4"/>
<!-- &#9679; -->
<g id="node1" class="node">
<title>&#9679;</title>
<ellipse fill="none" stroke="black" cx="1059" cy="-588.05" rx="30.31" ry="30.31"/>
<text text-anchor="middle" x="1059" y="-580.55" font-family="Times-Roman" font-size="30.00">●</text>
</g>
<!-- MPI_Send/MPI_Irecv (128B) -->
<g id="node2" class="node">
<title>MPI_Send/MPI_Irecv (128B)</title>
<polygon fill="#e3e3ff" stroke="black" points="621.5,-506.64 442.5,-506.64 442.5,-470.64 621.5,-470.64 621.5,-506.64"/>
<text text-anchor="middle" x="532" y="-485.54" font-family="Times-Roman" font-size="12.00">MPI_Send/MPI_Irecv (128B)</text>
</g>
<!-- &#9679;&#45;&gt;MPI_Send/MPI_Irecv (128B) -->
<g id="edge2" class="edge">
<title>&#9679;&#45;&gt;MPI_Send/MPI_Irecv (128B)</title>
<path fill="none" stroke="black" d="M1029.16,-581.53C953.92,-567.62 753.8,-530.63 631.63,-508.05"/>
<polygon fill="black" stroke="black" points="631.98,-504.56 621.51,-506.18 630.71,-511.44 631.98,-504.56"/>
<text text-anchor="middle" x="800" y="-528.44" font-family="Times-Roman" font-size="14.00">7</text>
</g>
<!-- MPI_Send/MPI_Irecv (2048B) -->
<g id="node4" class="node">
<title>MPI_Send/MPI_Irecv (2048B)</title>
<polygon fill="#f0f0ff" stroke="black" points="847,-158.64 661,-158.64 661,-122.64 847,-122.64 847,-158.64"/>
<text text-anchor="middle" x="754" y="-137.54" font-family="Times-Roman" font-size="12.00">MPI_Send/MPI_Irecv (2048B)</text>
</g>
<!-- &#9679;&#45;&gt;MPI_Send/MPI_Irecv (2048B) -->
<g id="edge1" class="edge">
<title>&#9679;&#45;&gt;MPI_Send/MPI_Irecv (2048B)</title>
<path fill="none" stroke="black" d="M1079.85,-565.82C1095.77,-547.31 1115,-518.9 1115,-489.64 1115,-489.64 1115,-489.64 1115,-357.14 1115,-314.55 1118.84,-298.24 1094,-263.64 1050.62,-203.2 1020.59,-202.93 951,-176.64 921.38,-165.45 887.89,-157.79 857.03,-152.57"/>
<polygon fill="black" stroke="black" points="857.54,-149.11 847.11,-150.96 856.42,-156.02 857.54,-149.11"/>
<text text-anchor="middle" x="1120" y="-354.44" font-family="Times-Roman" font-size="14.00">6</text>
</g>
<!-- MPI_Send/MPI_Irecv (8B) -->
<g id="node8" class="node">
<title>MPI_Send/MPI_Irecv (8B)</title>
<polygon fill="#eeeeff" stroke="black" points="686,-332.64 522,-332.64 522,-296.64 686,-296.64 686,-332.64"/>
<text text-anchor="middle" x="604" y="-311.54" font-family="Times-Roman" font-size="12.00">MPI_Send/MPI_Irecv (8B)</text>
</g>
<!-- &#9679;&#45;&gt;MPI_Send/MPI_Irecv (8B) -->
<g id="edge3" class="edge">
<title>&#9679;&#45;&gt;MPI_Send/MPI_Irecv (8B)</title>
<path fill="none" stroke="black" d="M1043.17,-561.73C1014.67,-518.33 950.42,-429.92 873,-383.64 819.19,-351.47 750.57,-334.43 696.1,-325.46"/>
<polygon fill="black" stroke="black" points="696.52,-321.98 686.1,-323.88 695.43,-328.9 696.52,-321.98"/>
<text text-anchor="middle" x="960" y="-441.44" font-family="Times-Roman" font-size="14.00">3</text>
</g>
<!-- MPI_Send/MPI_Irecv (128B)&#45;&gt;MPI_Send/MPI_Irecv (128B) -->
<g id="edge7" class="edge">
<title>MPI_Send/MPI_Irecv (128B)&#45;&gt;MPI_Send/MPI_Irecv (128B)</title>
<path fill="none" stroke="#000000" d="M621.78,-495.41C632.5,-494.18 639.5,-491.92 639.5,-488.64 639.5,-486.54 636.63,-484.86 631.75,-483.6"/>
<polygon fill="#000000" stroke="#000000" points="632.23,-480.13 621.78,-481.87 631.04,-487.03 632.23,-480.13"/>
<text text-anchor="middle" x="662.5" y="-484.94" font-family="Times-Roman" font-size="14.00">12928</text>
</g>
<!-- MPI_Send/MPI_Irecv (16B) -->
<g id="node3" class="node">
<title>MPI_Send/MPI_Irecv (16B)</title>
<polygon fill="#fbfbff" stroke="black" points="808.5,-419.64 637.5,-419.64 637.5,-383.64 808.5,-383.64 808.5,-419.64"/>
<text text-anchor="middle" x="723" y="-398.54" font-family="Times-Roman" font-size="12.00">MPI_Send/MPI_Irecv (16B)</text>
</g>
<!-- MPI_Send/MPI_Irecv (128B)&#45;&gt;MPI_Send/MPI_Irecv (16B) -->
<g id="edge36" class="edge">
<title>MPI_Send/MPI_Irecv (128B)&#45;&gt;MPI_Send/MPI_Irecv (16B)</title>
<path fill="none" stroke="#000000" d="M568.35,-470.43C589.23,-460.64 616,-448.25 640,-437.64 650.4,-433.04 661.59,-428.23 672.27,-423.7"/>
<polygon fill="#000000" stroke="#000000" points="673.65,-426.92 681.51,-419.81 670.93,-420.47 673.65,-426.92"/>
<text text-anchor="middle" x="654" y="-441.44" font-family="Times-Roman" font-size="14.00">474</text>
</g>
<!-- MPI_Send/MPI_Irecv (128B)&#45;&gt;MPI_Send/MPI_Irecv (2048B) -->
<g id="edge6" class="edge">
<title>MPI_Send/MPI_Irecv (128B)&#45;&gt;MPI_Send/MPI_Irecv (2048B)</title>
<path fill="none" stroke="#000000" d="M621.72,-480.85C710.58,-472.24 838.26,-454.16 873,-419.64 917.82,-375.1 877.58,-224.37 868,-209.64 854.65,-189.11 832.74,-173.9 811.67,-163.14"/>
<polygon fill="#000000" stroke="#000000" points="812.93,-159.86 802.41,-158.65 809.88,-166.16 812.93,-159.86"/>
<text text-anchor="middle" x="916" y="-310.94" font-family="Times-Roman" font-size="14.00">23250</text>
</g>
<!-- MPI_Send/MPI_Irecv (32B) -->
<g id="node5" class="node">
<title>MPI_Send/MPI_Irecv (32B)</title>
<polygon fill="#efefff" stroke="black" points="493.5,-53.82 322.5,-53.82 322.5,-17.82 493.5,-17.82 493.5,-53.82"/>
<text text-anchor="middle" x="408" y="-32.72" font-family="Times-Roman" font-size="12.00">MPI_Send/MPI_Irecv (32B)</text>
</g>
<!-- MPI_Send/MPI_Irecv (128B)&#45;&gt;MPI_Send/MPI_Irecv (32B) -->
<g id="edge17" class="edge">
<title>MPI_Send/MPI_Irecv (128B)&#45;&gt;MPI_Send/MPI_Irecv (32B)</title>
<path fill="none" stroke="#000000" d="M442.3,-487.98C323.85,-487.24 122.38,-481.57 55,-452.64 24.64,-439.61 0,-435.68 0,-402.64 0,-402.64 0,-402.64 0,-139.64 0,-75.52 191.89,-50.99 312.47,-41.9"/>
<polygon fill="#000000" stroke="#000000" points="312.75,-45.39 322.47,-41.17 312.24,-38.41 312.75,-45.39"/>
<text text-anchor="middle" x="23" y="-267.44" font-family="Times-Roman" font-size="14.00">16019</text>
</g>
<!-- MPI_Send/MPI_Irecv (512B) -->
<g id="node6" class="node">
<title>MPI_Send/MPI_Irecv (512B)</title>
<polygon fill="#f4f4ff" stroke="black" points="284.5,-158.64 105.5,-158.64 105.5,-122.64 284.5,-122.64 284.5,-158.64"/>
<text text-anchor="middle" x="195" y="-137.54" font-family="Times-Roman" font-size="12.00">MPI_Send/MPI_Irecv (512B)</text>
</g>
<!-- MPI_Send/MPI_Irecv (128B)&#45;&gt;MPI_Send/MPI_Irecv (512B) -->
<g id="edge38" class="edge">
<title>MPI_Send/MPI_Irecv (128B)&#45;&gt;MPI_Send/MPI_Irecv (512B)</title>
<path fill="none" stroke="#000000" d="M444.47,-470.56C369.42,-450.95 265.25,-410.83 212,-332.64 176.22,-280.1 189.76,-255.18 188,-191.64 187.82,-184.98 187.34,-183.27 188,-176.64 188.25,-174.1 188.6,-171.48 189.01,-168.86"/>
<polygon fill="#000000" stroke="#000000" points="192.46,-169.45 190.83,-158.98 185.58,-168.19 192.46,-169.45"/>
<text text-anchor="middle" x="226" y="-310.94" font-family="Times-Roman" font-size="14.00">471</text>
</g>
<!-- MPI_Send/MPI_Irecv (64B) -->
<g id="node7" class="node">
<title>MPI_Send/MPI_Irecv (64B)</title>
<polygon fill="#f3f3ff" stroke="black" points="513.5,-245.64 342.5,-245.64 342.5,-209.64 513.5,-209.64 513.5,-245.64"/>
<text text-anchor="middle" x="428" y="-224.54" font-family="Times-Roman" font-size="12.00">MPI_Send/MPI_Irecv (64B)</text>
</g>
<!-- MPI_Send/MPI_Irecv (128B)&#45;&gt;MPI_Send/MPI_Irecv (64B) -->
<g id="edge29" class="edge">
<title>MPI_Send/MPI_Irecv (128B)&#45;&gt;MPI_Send/MPI_Irecv (64B)</title>
<path fill="none" stroke="#000000" d="M506.7,-470.55C478.44,-449.68 434.5,-411.46 418,-365.64 404.89,-329.23 412.42,-283.93 419.69,-255.65"/>
<polygon fill="#000000" stroke="#000000" points="423.15,-256.26 422.42,-245.69 416.4,-254.41 423.15,-256.26"/>
<text text-anchor="middle" x="436.5" y="-354.44" font-family="Times-Roman" font-size="14.00">1099</text>
</g>
<!-- MPI_Send/MPI_Irecv (128B)&#45;&gt;MPI_Send/MPI_Irecv (8B) -->
<g id="edge8" class="edge">
<title>MPI_Send/MPI_Irecv (128B)&#45;&gt;MPI_Send/MPI_Irecv (8B)</title>
<path fill="none" stroke="#000000" d="M520.36,-470.57C507.38,-449.22 490.06,-412.03 505,-383.64 515.48,-363.73 534.71,-348.52 553.46,-337.59"/>
<polygon fill="#000000" stroke="#000000" points="555.23,-340.61 562.3,-332.72 551.85,-334.48 555.23,-340.61"/>
<text text-anchor="middle" x="528" y="-397.94" font-family="Times-Roman" font-size="14.00">14292</text>
</g>
<!-- &#9632; -->
<g id="node9" class="node">
<title>&#9632;</title>
<ellipse fill="none" stroke="black" cx="1041" cy="-35.82" rx="31.66" ry="31.66"/>
<ellipse fill="none" stroke="black" cx="1041" cy="-35.82" rx="35.64" ry="35.64"/>
<text text-anchor="middle" x="1041" y="-28.32" font-family="Times-Roman" font-size="30.00">■</text>
</g>
<!-- MPI_Send/MPI_Irecv (128B)&#45;&gt;&#9632; -->
<g id="edge43" class="edge">
<title>MPI_Send/MPI_Irecv (128B)&#45;&gt;&#9632;</title>
<path fill="none" stroke="black" d="M621.59,-486.52C727.93,-484.1 898.27,-476.5 957,-452.64 978.35,-443.96 981.04,-436.27 997,-419.64 1030.61,-384.63 1047.53,-378.64 1063,-332.64 1091.95,-246.58 1070.59,-138.76 1054.49,-79.96"/>
<polygon fill="black" stroke="black" points="1057.83,-78.94 1051.76,-70.26 1051.1,-80.84 1057.83,-78.94"/>
<text text-anchor="middle" x="1081" y="-267.44" font-family="Times-Roman" font-size="14.00">7</text>
</g>
<!-- MPI_Send/MPI_Irecv (16B)&#45;&gt;MPI_Send/MPI_Irecv (128B) -->
<g id="edge39" class="edge">
<title>MPI_Send/MPI_Irecv (16B)&#45;&gt;MPI_Send/MPI_Irecv (128B)</title>
<path fill="none" stroke="#000000" d="M708.26,-419.8C698,-430.71 683.44,-444.31 668,-452.64 656.63,-458.78 644.14,-463.87 631.48,-468.09"/>
<polygon fill="#000000" stroke="#000000" points="630.26,-464.81 621.78,-471.15 632.37,-471.48 630.26,-464.81"/>
<text text-anchor="middle" x="702" y="-441.44" font-family="Times-Roman" font-size="14.00">471</text>
</g>
<!-- MPI_Send/MPI_Irecv (16B)&#45;&gt;MPI_Send/MPI_Irecv (16B) -->
<g id="edge24" class="edge">
<title>MPI_Send/MPI_Irecv (16B)&#45;&gt;MPI_Send/MPI_Irecv (16B)</title>
<path fill="none" stroke="#000000" d="M808.66,-408.5C819.42,-407.29 826.5,-405 826.5,-401.64 826.5,-399.49 823.59,-397.77 818.68,-396.5"/>
<polygon fill="#000000" stroke="#000000" points="819.11,-393.03 808.66,-394.78 817.93,-399.92 819.11,-393.03"/>
<text text-anchor="middle" x="845" y="-397.94" font-family="Times-Roman" font-size="14.00">1260</text>
</g>
<!-- MPI_Send/MPI_Irecv (16B)&#45;&gt;MPI_Send/MPI_Irecv (32B) -->
<g id="edge23" class="edge">
<title>MPI_Send/MPI_Irecv (16B)&#45;&gt;MPI_Send/MPI_Irecv (32B)</title>
<path fill="none" stroke="#000000" d="M736.63,-383.4C779.48,-329.19 908.7,-165.36 911,-158.64 916.19,-143.5 921.32,-134.87 911,-122.64 859.91,-62.1 634.72,-44.26 503.62,-39.01"/>
<polygon fill="#000000" stroke="#000000" points="503.69,-35.51 493.57,-38.62 503.42,-42.5 503.69,-35.51"/>
<text text-anchor="middle" x="889.5" y="-223.94" font-family="Times-Roman" font-size="14.00">5811</text>
</g>
<!-- MPI_Send/MPI_Irecv (16B)&#45;&gt;MPI_Send/MPI_Irecv (8B) -->
<g id="edge25" class="edge">
<title>MPI_Send/MPI_Irecv (16B)&#45;&gt;MPI_Send/MPI_Irecv (8B)</title>
<path fill="none" stroke="#000000" d="M698.92,-383.44C680.93,-370.59 656.16,-352.9 636.43,-338.81"/>
<polygon fill="#000000" stroke="#000000" points="638.22,-335.78 628.05,-332.82 634.15,-341.48 638.22,-335.78"/>
<text text-anchor="middle" x="688.5" y="-354.44" font-family="Times-Roman" font-size="14.00">2506</text>
</g>
<!-- MPI_Send/MPI_Irecv (2048B)&#45;&gt;MPI_Send/MPI_Irecv (128B) -->
<g id="edge5" class="edge">
<title>MPI_Send/MPI_Irecv (2048B)&#45;&gt;MPI_Send/MPI_Irecv (128B)</title>
<path fill="none" stroke="#000000" d="M847.07,-157.74C901.83,-169.39 963.34,-187.04 979,-209.64 1041.52,-299.85 1020.14,-383.37 935,-452.64 911.99,-471.36 743.78,-480.62 632.07,-484.75"/>
<polygon fill="#000000" stroke="#000000" points="631.65,-481.26 621.78,-485.12 631.9,-488.26 631.65,-481.26"/>
<text text-anchor="middle" x="1038" y="-310.94" font-family="Times-Roman" font-size="14.00">23250</text>
</g>
<!-- MPI_Send/MPI_Irecv (2048B)&#45;&gt;MPI_Send/MPI_Irecv (2048B) -->
<g id="edge4" class="edge">
<title>MPI_Send/MPI_Irecv (2048B)&#45;&gt;MPI_Send/MPI_Irecv (2048B)</title>
<path fill="none" stroke="#000000" d="M847.12,-147.36C857.95,-146.12 865,-143.88 865,-140.64 865,-138.56 862.11,-136.9 857.18,-135.64"/>
<polygon fill="#000000" stroke="#000000" points="857.57,-132.16 847.12,-133.92 856.39,-139.06 857.57,-132.16"/>
<text text-anchor="middle" x="883.5" y="-136.94" font-family="Times-Roman" font-size="14.00">7908</text>
</g>
<!-- MPI_Send/MPI_Irecv (2048B)&#45;&gt;MPI_Send/MPI_Irecv (64B) -->
<g id="edge33" class="edge">
<title>MPI_Send/MPI_Irecv (2048B)&#45;&gt;MPI_Send/MPI_Irecv (64B)</title>
<path fill="none" stroke="#000000" d="M660.92,-154.45C635.71,-159.64 608.82,-166.82 585,-176.64 573.72,-181.29 573.16,-186.7 562,-191.64 548.87,-197.45 534.57,-202.46 520.37,-206.71"/>
<polygon fill="#000000" stroke="#000000" points="519.2,-203.41 510.57,-209.54 521.14,-210.13 519.2,-203.41"/>
<text text-anchor="middle" x="599" y="-180.44" font-family="Times-Roman" font-size="14.00">471</text>
</g>
<!-- MPI_Send/MPI_Irecv (2048B)&#45;&gt;MPI_Send/MPI_Irecv (8B) -->
<g id="edge32" class="edge">
<title>MPI_Send/MPI_Irecv (2048B)&#45;&gt;MPI_Send/MPI_Irecv (8B)</title>
<path fill="none" stroke="#000000" d="M754.62,-158.92C754.54,-181.16 751.32,-219.99 732,-245.64 716.1,-266.76 691.69,-281.99 668.44,-292.62"/>
<polygon fill="#000000" stroke="#000000" points="667.04,-289.41 659.26,-296.61 669.83,-295.83 667.04,-289.41"/>
<text text-anchor="middle" x="766.5" y="-223.94" font-family="Times-Roman" font-size="14.00">5269</text>
</g>
<!-- MPI_Send/MPI_Irecv (2048B)&#45;&gt;&#9632; -->
<g id="edge44" class="edge">
<title>MPI_Send/MPI_Irecv (2048B)&#45;&gt;&#9632;</title>
<path fill="none" stroke="black" d="M801.71,-122.55C856.37,-102.96 945.15,-71.16 997.82,-52.29"/>
<polygon fill="black" stroke="black" points="999.31,-55.47 1007.54,-48.81 996.94,-48.89 999.31,-55.47"/>
<text text-anchor="middle" x="893" y="-93.44" font-family="Times-Roman" font-size="14.00">6</text>
</g>
<!-- MPI_Send/MPI_Irecv (32B)&#45;&gt;MPI_Send/MPI_Irecv (128B) -->
<g id="edge18" class="edge">
<title>MPI_Send/MPI_Irecv (32B)&#45;&gt;MPI_Send/MPI_Irecv (128B)</title>
<path fill="none" stroke="#000000" d="M322.46,-45.68C222.03,-58.52 69,-86.75 69,-139.64 69,-402.64 69,-402.64 69,-402.64 69,-439.29 296.34,-466.31 432.42,-479.21"/>
<polygon fill="#000000" stroke="#000000" points="432.17,-482.7 442.45,-480.15 432.82,-475.73 432.17,-482.7"/>
<text text-anchor="middle" x="92" y="-267.44" font-family="Times-Roman" font-size="14.00">15999</text>
</g>
<!-- MPI_Send/MPI_Irecv (32B)&#45;&gt;MPI_Send/MPI_Irecv (16B) -->
<g id="edge22" class="edge">
<title>MPI_Send/MPI_Irecv (32B)&#45;&gt;MPI_Send/MPI_Irecv (16B)</title>
<path fill="none" stroke="#000000" d="M493.68,-39.08C637.42,-43.77 914.39,-56.97 944,-89.64 974.44,-123.23 955.97,-147.92 944,-191.64 941.03,-202.47 849.86,-358.73 841,-365.64 834.02,-371.08 826.21,-375.68 818.03,-379.56"/>
<polygon fill="#000000" stroke="#000000" points="816.41,-376.45 808.64,-383.65 819.21,-382.86 816.41,-376.45"/>
<text text-anchor="middle" x="952.5" y="-223.94" font-family="Times-Roman" font-size="14.00">5812</text>
</g>
<!-- MPI_Send/MPI_Irecv (32B)&#45;&gt;MPI_Send/MPI_Irecv (32B) -->
<g id="edge19" class="edge">
<title>MPI_Send/MPI_Irecv (32B)&#45;&gt;MPI_Send/MPI_Irecv (32B)</title>
<path fill="none" stroke="#000000" d="M493.66,-45.62C504.42,-43.89 511.5,-40.62 511.5,-35.82 511.5,-32.74 508.59,-30.3 503.68,-28.48"/>
<polygon fill="#000000" stroke="#000000" points="504.21,-25.01 493.66,-26.02 502.54,-31.81 504.21,-25.01"/>
<text text-anchor="middle" x="530" y="-32.12" font-family="Times-Roman" font-size="14.00">7223</text>
</g>
<!-- MPI_Send/MPI_Irecv (32B)&#45;&gt;MPI_Send/MPI_Irecv (512B) -->
<g id="edge40" class="edge">
<title>MPI_Send/MPI_Irecv (32B)&#45;&gt;MPI_Send/MPI_Irecv (512B)</title>
<path fill="none" stroke="#000000" d="M322.16,-53.47C293.85,-61.5 263.19,-73.1 238,-89.64 228.14,-96.11 219.24,-105.48 212.14,-114.36"/>
<polygon fill="#000000" stroke="#000000" points="209.14,-112.52 205.91,-122.61 214.73,-116.74 209.14,-112.52"/>
<text text-anchor="middle" x="252" y="-93.44" font-family="Times-Roman" font-size="14.00">471</text>
</g>
<!-- MPI_Send/MPI_Irecv (32B)&#45;&gt;MPI_Send/MPI_Irecv (64B) -->
<g id="edge31" class="edge">
<title>MPI_Send/MPI_Irecv (32B)&#45;&gt;MPI_Send/MPI_Irecv (64B)</title>
<path fill="none" stroke="#000000" d="M400.04,-54.01C390.1,-77.82 375.61,-122.05 386,-158.64 387.34,-163.36 400.01,-183.6 411.08,-200.78"/>
<polygon fill="#000000" stroke="#000000" points="408.28,-202.9 416.66,-209.39 414.16,-199.09 408.28,-202.9"/>
<text text-anchor="middle" x="400" y="-136.94" font-family="Times-Roman" font-size="14.00">628</text>
</g>
<!-- MPI_Send/MPI_Irecv (32B)&#45;&gt;MPI_Send/MPI_Irecv (8B) -->
<g id="edge20" class="edge">
<title>MPI_Send/MPI_Irecv (32B)&#45;&gt;MPI_Send/MPI_Irecv (8B)</title>
<path fill="none" stroke="#000000" d="M458.73,-53.93C509.32,-74.16 583.61,-113.34 613,-176.64 629.36,-211.88 621.24,-257.78 613.18,-286.48"/>
<polygon fill="#000000" stroke="#000000" points="609.78,-285.64 610.26,-296.22 616.48,-287.65 609.78,-285.64"/>
<text text-anchor="middle" x="636.5" y="-180.44" font-family="Times-Roman" font-size="14.00">8783</text>
</g>
<!-- MPI_Send/MPI_Irecv (512B)&#45;&gt;MPI_Send/MPI_Irecv (128B) -->
<g id="edge37" class="edge">
<title>MPI_Send/MPI_Irecv (512B)&#45;&gt;MPI_Send/MPI_Irecv (128B)</title>
<path fill="none" stroke="#000000" d="M192.71,-158.8C190.68,-180.57 190.12,-218.54 206,-245.64 270.85,-356.3 408.22,-431.92 482.25,-466.39"/>
<polygon fill="#000000" stroke="#000000" points="480.84,-469.6 491.39,-470.59 483.76,-463.24 480.84,-469.6"/>
<text text-anchor="middle" x="289" y="-310.94" font-family="Times-Roman" font-size="14.00">474</text>
</g>
<!-- MPI_Send/MPI_Irecv (512B)&#45;&gt;MPI_Send/MPI_Irecv (32B) -->
<g id="edge35" class="edge">
<title>MPI_Send/MPI_Irecv (512B)&#45;&gt;MPI_Send/MPI_Irecv (32B)</title>
<path fill="none" stroke="#000000" d="M230.65,-122.43C267.16,-104.81 324,-77.37 363.45,-58.32"/>
<polygon fill="#000000" stroke="#000000" points="365.1,-61.41 372.59,-53.91 362.06,-55.11 365.1,-61.41"/>
<text text-anchor="middle" x="310" y="-93.44" font-family="Times-Roman" font-size="14.00">471</text>
</g>
<!-- MPI_Send/MPI_Irecv (512B)&#45;&gt;MPI_Send/MPI_Irecv (512B) -->
<g id="edge11" class="edge">
<title>MPI_Send/MPI_Irecv (512B)&#45;&gt;MPI_Send/MPI_Irecv (512B)</title>
<path fill="none" stroke="#000000" d="M284.78,-147.41C295.5,-146.18 302.5,-143.92 302.5,-140.64 302.5,-138.54 299.63,-136.86 294.75,-135.6"/>
<polygon fill="#000000" stroke="#000000" points="295.23,-132.13 284.78,-133.87 294.04,-139.03 295.23,-132.13"/>
<text text-anchor="middle" x="321" y="-136.94" font-family="Times-Roman" font-size="14.00">5652</text>
</g>
<!-- MPI_Send/MPI_Irecv (512B)&#45;&gt;MPI_Send/MPI_Irecv (64B) -->
<g id="edge12" class="edge">
<title>MPI_Send/MPI_Irecv (512B)&#45;&gt;MPI_Send/MPI_Irecv (64B)</title>
<path fill="none" stroke="#000000" d="M275.02,-158.7C292.19,-163.55 309.98,-169.5 326,-176.64 337.15,-181.61 338.28,-185.82 349,-191.64 357.8,-196.42 367.38,-201.08 376.74,-205.37"/>
<polygon fill="#000000" stroke="#000000" points="375.43,-208.62 385.98,-209.52 378.3,-202.23 375.43,-208.62"/>
<text text-anchor="middle" x="372" y="-180.44" font-family="Times-Roman" font-size="14.00">16017</text>
</g>
<!-- MPI_Send/MPI_Irecv (512B)&#45;&gt;MPI_Send/MPI_Irecv (8B) -->
<g id="edge34" class="edge">
<title>MPI_Send/MPI_Irecv (512B)&#45;&gt;MPI_Send/MPI_Irecv (8B)</title>
<path fill="none" stroke="#000000" d="M213.57,-158.82C227.94,-172.31 248.16,-191.75 265,-209.64 279.48,-225.01 277.87,-234.81 296,-245.64 361.7,-284.9 447.48,-301.56 511.82,-308.59"/>
<polygon fill="#000000" stroke="#000000" points="511.64,-312.1 521.95,-309.64 512.37,-305.13 511.64,-312.1"/>
<text text-anchor="middle" x="314.5" y="-223.94" font-family="Times-Roman" font-size="14.00">3762</text>
</g>
<!-- MPI_Send/MPI_Irecv (64B)&#45;&gt;MPI_Send/MPI_Irecv (128B) -->
<g id="edge28" class="edge">
<title>MPI_Send/MPI_Irecv (64B)&#45;&gt;MPI_Send/MPI_Irecv (128B)</title>
<path fill="none" stroke="#000000" d="M431.12,-245.92C438.66,-284.86 460.36,-381.65 501,-452.64 502.98,-456.11 505.35,-459.53 507.88,-462.81"/>
<polygon fill="#000000" stroke="#000000" points="505.28,-465.15 514.38,-470.57 510.65,-460.66 505.28,-465.15"/>
<text text-anchor="middle" x="481.5" y="-354.44" font-family="Times-Roman" font-size="14.00">1101</text>
</g>
<!-- MPI_Send/MPI_Irecv (64B)&#45;&gt;MPI_Send/MPI_Irecv (2048B) -->
<g id="edge41" class="edge">
<title>MPI_Send/MPI_Irecv (64B)&#45;&gt;MPI_Send/MPI_Irecv (2048B)</title>
<path fill="none" stroke="#000000" d="M474.74,-209.52C486.87,-204.39 499.69,-198.32 511,-191.64 520.26,-186.17 520.14,-180.94 530,-176.64 567.5,-160.27 611.48,-151.42 650.5,-146.69"/>
<polygon fill="#000000" stroke="#000000" points="651.29,-150.12 660.83,-145.51 650.5,-143.16 651.29,-150.12"/>
<text text-anchor="middle" x="544" y="-180.44" font-family="Times-Roman" font-size="14.00">471</text>
</g>
<!-- MPI_Send/MPI_Irecv (64B)&#45;&gt;MPI_Send/MPI_Irecv (32B) -->
<g id="edge30" class="edge">
<title>MPI_Send/MPI_Irecv (64B)&#45;&gt;MPI_Send/MPI_Irecv (32B)</title>
<path fill="none" stroke="#000000" d="M426.32,-209.51C425.36,-199.86 424.13,-187.57 423,-176.64 418.96,-137.62 414.08,-92.51 411.01,-64.31"/>
<polygon fill="#000000" stroke="#000000" points="414.45,-63.6 409.89,-54.04 407.49,-64.36 414.45,-63.6"/>
<text text-anchor="middle" x="436" y="-136.94" font-family="Times-Roman" font-size="14.00">627</text>
</g>
<!-- MPI_Send/MPI_Irecv (64B)&#45;&gt;MPI_Send/MPI_Irecv (512B) -->
<g id="edge13" class="edge">
<title>MPI_Send/MPI_Irecv (64B)&#45;&gt;MPI_Send/MPI_Irecv (512B)</title>
<path fill="none" stroke="#000000" d="M342.27,-210.28C314.85,-204.32 288.39,-197.58 276,-191.64 266.3,-186.99 265.93,-182.64 257,-176.64 250.43,-172.23 243.28,-167.84 236.23,-163.73"/>
<polygon fill="#000000" stroke="#000000" points="237.85,-160.63 227.43,-158.7 234.37,-166.7 237.85,-160.63"/>
<text text-anchor="middle" x="299" y="-180.44" font-family="Times-Roman" font-size="14.00">16017</text>
</g>
<!-- MPI_Send/MPI_Irecv (64B)&#45;&gt;MPI_Send/MPI_Irecv (64B) -->
<g id="edge14" class="edge">
<title>MPI_Send/MPI_Irecv (64B)&#45;&gt;MPI_Send/MPI_Irecv (64B)</title>
<path fill="none" stroke="#000000" d="M513.66,-234.5C524.42,-233.29 531.5,-231 531.5,-227.64 531.5,-225.49 528.59,-223.77 523.68,-222.5"/>
<polygon fill="#000000" stroke="#000000" points="524.11,-219.03 513.66,-220.78 522.93,-225.92 524.11,-219.03"/>
<text text-anchor="middle" x="550" y="-223.94" font-family="Times-Roman" font-size="14.00">4397</text>
</g>
<!-- MPI_Send/MPI_Irecv (64B)&#45;&gt;MPI_Send/MPI_Irecv (8B) -->
<g id="edge15" class="edge">
<title>MPI_Send/MPI_Irecv (64B)&#45;&gt;MPI_Send/MPI_Irecv (8B)</title>
<path fill="none" stroke="#000000" d="M468.53,-245.74C481.25,-251.27 495.28,-257.55 508,-263.64 526.31,-272.4 546.25,-282.67 563.2,-291.61"/>
<polygon fill="#000000" stroke="#000000" points="561.8,-294.83 572.27,-296.43 565.08,-288.65 561.8,-294.83"/>
<text text-anchor="middle" x="556.5" y="-267.44" font-family="Times-Roman" font-size="14.00">7531</text>
</g>
<!-- MPI_Send/MPI_Irecv (8B)&#45;&gt;MPI_Send/MPI_Irecv (128B) -->
<g id="edge16" class="edge">
<title>MPI_Send/MPI_Irecv (8B)&#45;&gt;MPI_Send/MPI_Irecv (128B)</title>
<path fill="none" stroke="#000000" d="M596.86,-332.69C584.27,-362.78 558.02,-425.47 543.07,-461.2"/>
<polygon fill="#000000" stroke="#000000" points="539.8,-459.94 539.17,-470.52 546.26,-462.65 539.8,-459.94"/>
<text text-anchor="middle" x="598" y="-397.94" font-family="Times-Roman" font-size="14.00">14310</text>
</g>
<!-- MPI_Send/MPI_Irecv (8B)&#45;&gt;MPI_Send/MPI_Irecv (16B) -->
<g id="edge27" class="edge">
<title>MPI_Send/MPI_Irecv (8B)&#45;&gt;MPI_Send/MPI_Irecv (16B)</title>
<path fill="none" stroke="#000000" d="M603.66,-332.87C604.36,-343.53 607,-356.82 615,-365.64 619.43,-370.52 624.55,-374.73 630.1,-378.35"/>
<polygon fill="#000000" stroke="#000000" points="628.74,-381.6 639.15,-383.57 632.24,-375.54 628.74,-381.6"/>
<text text-anchor="middle" x="633.5" y="-354.44" font-family="Times-Roman" font-size="14.00">2502</text>
</g>
<!-- MPI_Send/MPI_Irecv (8B)&#45;&gt;MPI_Send/MPI_Irecv (2048B) -->
<g id="edge9" class="edge">
<title>MPI_Send/MPI_Irecv (8B)&#45;&gt;MPI_Send/MPI_Irecv (2048B)</title>
<path fill="none" stroke="#000000" d="M629.04,-296.45C635.9,-291.15 643.07,-285.02 649,-278.64 674.09,-251.64 672.66,-238.95 695,-209.64 706.38,-194.71 720.06,-178.83 731.39,-166.17"/>
<polygon fill="#000000" stroke="#000000" points="733.99,-168.51 738.09,-158.74 728.79,-163.82 733.99,-168.51"/>
<text text-anchor="middle" x="713.5" y="-223.94" font-family="Times-Roman" font-size="14.00">5269</text>
</g>
<!-- MPI_Send/MPI_Irecv (8B)&#45;&gt;MPI_Send/MPI_Irecv (32B) -->
<g id="edge21" class="edge">
<title>MPI_Send/MPI_Irecv (8B)&#45;&gt;MPI_Send/MPI_Irecv (32B)</title>
<path fill="none" stroke="#000000" d="M605.02,-296.42C605.37,-273.15 602.2,-231.98 578,-209.64 542.25,-176.63 505.47,-224.95 470,-191.64 447.05,-170.09 465.09,-152.1 454,-122.64 446.06,-101.55 433.92,-79.15 424.1,-62.53"/>
<polygon fill="#000000" stroke="#000000" points="427.08,-60.69 418.93,-53.93 421.08,-64.3 427.08,-60.69"/>
<text text-anchor="middle" x="488.5" y="-180.44" font-family="Times-Roman" font-size="14.00">8765</text>
</g>
<!-- MPI_Send/MPI_Irecv (8B)&#45;&gt;MPI_Send/MPI_Irecv (512B) -->
<g id="edge10" class="edge">
<title>MPI_Send/MPI_Irecv (8B)&#45;&gt;MPI_Send/MPI_Irecv (512B)</title>
<path fill="none" stroke="#000000" d="M521.78,-309.48C439.67,-304.5 319.57,-294.76 276,-278.64 251.72,-269.66 243.42,-266.44 228,-245.64 211.13,-222.88 202.71,-191.23 198.62,-168.83"/>
<polygon fill="#000000" stroke="#000000" points="202.03,-167.96 196.95,-158.66 195.12,-169.1 202.03,-167.96"/>
<text text-anchor="middle" x="246.5" y="-223.94" font-family="Times-Roman" font-size="14.00">3765</text>
</g>
<!-- MPI_Send/MPI_Irecv (8B)&#45;&gt;MPI_Send/MPI_Irecv (64B) -->
<g id="edge26" class="edge">
<title>MPI_Send/MPI_Irecv (8B)&#45;&gt;MPI_Send/MPI_Irecv (64B)</title>
<path fill="none" stroke="#000000" d="M521.72,-301.9C502.73,-296.75 483.33,-289.32 467,-278.64 457.6,-272.49 449.5,-263.31 443.16,-254.48"/>
<polygon fill="#000000" stroke="#000000" points="445.88,-252.26 437.41,-245.9 440.07,-256.15 445.88,-252.26"/>
<text text-anchor="middle" x="485.5" y="-267.44" font-family="Times-Roman" font-size="14.00">7532</text>
</g>
<!-- MPI_Send/MPI_Irecv (8B)&#45;&gt;&#9632; -->
<g id="edge42" class="edge">
<title>MPI_Send/MPI_Irecv (8B)&#45;&gt;&#9632;</title>
<path fill="none" stroke="black" d="M686.21,-308.65C783.26,-301.11 936.81,-283.45 979,-245.64 1025.31,-204.13 1037.71,-129.79 1040.65,-81.92"/>
<polygon fill="black" stroke="black" points="1044.15,-82 1041.16,-71.84 1037.16,-81.65 1044.15,-82"/>
<text text-anchor="middle" x="1026" y="-180.44" font-family="Times-Roman" font-size="14.00">3</text>
</g>
</g>
</svg>
