<?xml version="1.0" encoding="UTF-8" standalone="no"?>
<!DOCTYPE svg PUBLIC "-//W3C//DTD SVG 1.1//EN"
 "http://www.w3.org/Graphics/SVG/1.1/DTD/svg11.dtd">
<!-- Generated by graphviz version 2.44.0 (0)
 -->
<!-- Pages: 1 -->
<svg width="264pt" height="289pt"
 viewBox="0.00 0.00 264.00 289.45" xmlns="http://www.w3.org/2000/svg" xmlns:xlink="http://www.w3.org/1999/xlink">
<g id="graph0" class="graph" transform="scale(1 1) rotate(0) translate(4 285.45)">
<polygon fill="white" stroke="transparent" points="-4,4 -4,-285.45 260,-285.45 260,4 -4,4"/>
<!-- &#9679; -->
<g id="node1" class="node">
<title>&#9679;</title>
<ellipse fill="none" stroke="black" cx="128" cy="-251.05" rx="30.31" ry="30.31"/>
<text text-anchor="middle" x="128" y="-243.55" font-family="Times-Roman" font-size="30.00">●</text>
</g>
<!-- jwc00n046&#45;&gt;jwc00n047 (1073741824B)
jwc00isw102&#45;&gt;jwc00isw102 -->
<g id="node2" class="node">
<title>jwc00n046&#45;&gt;jwc00n047 (1073741824B)
jwc00isw102&#45;&gt;jwc00isw102</title>
<polygon fill="#9b9bff" stroke="black" points="256,-169.64 0,-169.64 0,-122.64 256,-122.64 256,-169.64"/>
<text text-anchor="middle" x="128" y="-156.04" font-family="Times-Roman" font-size="12.00">jwc00n046&#45;&gt;jwc00n047 (1073741824B)</text>
<text text-anchor="middle" x="128" y="-143.04" font-family="Times-Roman" font-size="12.00">jwc00isw102&#45;&gt;jwc00isw102</text>
<text text-anchor="middle" x="128" y="-130.04" font-family="Times-Roman" font-size="12.00"> Load: 1167.33 MB/s (2)</text>
</g>
<!-- &#9679;&#45;&gt;jwc00n046&#45;&gt;jwc00n047 (1073741824B)
jwc00isw102&#45;&gt;jwc00isw102 -->
<g id="edge1" class="edge">
<title>&#9679;&#45;&gt;jwc00n046&#45;&gt;jwc00n047 (1073741824B)
jwc00isw102&#45;&gt;jwc00isw102</title>
<path fill="none" stroke="black" d="M128,-220.56C128,-207.81 128,-192.85 128,-179.77"/>
<polygon fill="black" stroke="black" points="131.5,-179.76 128,-169.76 124.5,-179.76 131.5,-179.76"/>
<text text-anchor="middle" x="133" y="-191.44" font-family="Times-Roman" font-size="14.00">1</text>
</g>
<!-- &#9632; -->
<g id="node3" class="node">
<title>&#9632;</title>
<ellipse fill="none" stroke="black" cx="128" cy="-35.82" rx="31.66" ry="31.66"/>
<ellipse fill="none" stroke="black" cx="128" cy="-35.82" rx="35.64" ry="35.64"/>
<text text-anchor="middle" x="128" y="-28.32" font-family="Times-Roman" font-size="30.00">■</text>
</g>
<!-- jwc00n046&#45;&gt;jwc00n047 (1073741824B)
jwc00isw102&#45;&gt;jwc00isw102&#45;&gt;&#9632; -->
<g id="edge2" class="edge">
<title>jwc00n046&#45;&gt;jwc00n047 (1073741824B)
jwc00isw102&#45;&gt;jwc00isw102&#45;&gt;&#9632;</title>
<path fill="none" stroke="black" d="M128,-122.43C128,-110.77 128,-96.12 128,-82.26"/>
<polygon fill="black" stroke="black" points="131.5,-81.87 128,-71.87 124.5,-81.87 131.5,-81.87"/>
<text text-anchor="middle" x="133" y="-93.44" font-family="Times-Roman" font-size="14.00">1</text>
</g>
</g>
</svg>
